<?xml version="1.0" encoding="utf-8"?>
<!-- Generator: Adobe Illustrator 23.1.1, SVG Export Plug-In . SVG Version: 6.00 Build 0)  -->
<svg version="1.1" id="圖層_1" xmlns="http://www.w3.org/2000/svg" xmlns:xlink="http://www.w3.org/1999/xlink" x="0px" y="0px"
	 viewBox="0 0 8 16" style="enable-background:new 0 0 8 16;" xml:space="preserve">
<style type="text/css">
	.st0{clip-path:url(#SVGID_2_);fill:#5BB2FE;}
</style>
<g>
	<g>
		<defs>
			<rect id="SVGID_1_" width="8" height="16"/>
		</defs>
		<clipPath id="SVGID_2_">
			<use xlink:href="#SVGID_1_"  style="overflow:visible;"/>
		</clipPath>
		<path class="st0" d="M4,0c1.1,0,2,0.9,2,2S5.1,4,4,4S2,3.1,2,2S2.9,0,4,0"/>
		<path class="st0" d="M6.5,16h-5C0.7,16,0,15.3,0,14.5S0.7,13,1.5,13h1V9H2C1.2,9,0.5,8.3,0.5,7.5S1.2,6,2,6h2
			c0.8,0,1.5,0.7,1.5,1.5V13h1C7.3,13,8,13.7,8,14.5S7.3,16,6.5,16"/>
	</g>
</g>
</svg>
