<?xml version="1.0" encoding="utf-8"?>
<!-- Generator: Adobe Illustrator 23.1.1, SVG Export Plug-In . SVG Version: 6.00 Build 0)  -->
<svg version="1.1" id="圖層_1" xmlns="http://www.w3.org/2000/svg" xmlns:xlink="http://www.w3.org/1999/xlink" x="0px" y="0px"
	 viewBox="0 0 44 30" style="enable-background:new 0 0 44 30;" xml:space="preserve">
<style type="text/css">
	.st0{fill:#A7CDE2;}
	.st1{fill:none;stroke:#19191A;stroke-width:1.6;stroke-miterlimit:10;}
	.st2{fill:#FFFFFF;}
	.st3{fill:none;stroke:#19191A;stroke-width:1.6;stroke-linecap:round;stroke-linejoin:round;stroke-miterlimit:10;}
	.st4{fill:none;}
</style>
<g>
	<path class="st0" d="M27.9,15.9H17.8c-2.2,0-3.9-1.8-3.9-3.9s1.8-3.9,3.9-3.9h10.1c2.2,0,3.9,1.8,3.9,3.9S30,15.9,27.9,15.9"/>
	<path class="st1" d="M27.9,15.9H17.8c-2.2,0-3.9-1.8-3.9-3.9s1.8-3.9,3.9-3.9h10.1c2.2,0,3.9,1.8,3.9,3.9S30,15.9,27.9,15.9z"/>
	<path class="st2" d="M9.8,29.2L9.8,29.2c-1.6,0-2.9-1.3-2.9-2.9V9.2c0-1.6,1.3-2.9,2.9-2.9s2.9,1.3,2.9,2.9v17.1
		C12.6,27.9,11.4,29.2,9.8,29.2"/>
	<path class="st3" d="M9.8,29.2L9.8,29.2c-1.6,0-2.9-1.3-2.9-2.9V9.2c0-1.6,1.3-2.9,2.9-2.9s2.9,1.3,2.9,2.9v17.1
		C12.6,27.9,11.4,29.2,9.8,29.2z"/>
	<path class="st2" d="M16.3,6.3c-0.4,0-0.8,0.1-1.2,0.1h-4.9H6.6c-3.1,0-5.7,2.5-5.7,5.7s2.5,5.7,5.7,5.7h7.9c1.5,0,2.9,0,4.3,0.3
		c1.2,0.3,2.4,0.7,3.5,1.2c1.6,0.7,3.1,1.7,4.5,2.9c0.2,0.1,1,0.8,1,1V0.9c0,0.4-1.3,1.2-1.6,1.4c-1.5,1.1-3.2,2-4.9,2.7
		C19.7,5.7,18,6.1,16.3,6.3"/>
	<path class="st3" d="M16.3,6.3c-0.4,0-0.8,0.1-1.2,0.1h-4.9H6.6c-3.1,0-5.7,2.5-5.7,5.7s2.5,5.7,5.7,5.7h7.9c1.5,0,2.9,0,4.3,0.3
		c1.2,0.3,2.4,0.7,3.5,1.2c1.6,0.7,3.1,1.7,4.5,2.9c0.2,0.1,1,0.8,1,1V0.9c0,0.4-1.3,1.2-1.6,1.4c-1.5,1.1-3.2,2-4.9,2.7
		C19.7,5.7,18,6.1,16.3,6.3z"/>
	<path class="st0" d="M6.9,6.3H6.6c-3.1,0-5.7,2.5-5.7,5.7s2.5,5.7,5.7,5.7h0.3V6.3z"/>
	<path class="st1" d="M6.9,6.3H6.6c-3.1,0-5.7,2.5-5.7,5.7s2.5,5.7,5.7,5.7h0.3V6.3z"/>
	<path class="st0" d="M34.4,8.4c3-2.1,3.5-2.4,6.5-4.5"/>
	<path class="st1" d="M34.4,8.4c3-2.1,3.5-2.4,6.5-4.5"/>
	<path class="st0" d="M34.4,15.3c3,2.1,3.5,2.4,6.5,4.5"/>
	<path class="st1" d="M34.4,15.3c3,2.1,3.5,2.4,6.5,4.5"/>
	<line class="st0" x1="36.8" y1="11.8" x2="44" y2="11.8"/>
	<line class="st1" x1="36.8" y1="11.8" x2="44" y2="11.8"/>
	<rect class="st4" width="44" height="30.1"/>
</g>
</svg>
