<?xml version="1.0" encoding="utf-8"?>
<!-- Generator: Adobe Illustrator 23.1.1, SVG Export Plug-In . SVG Version: 6.00 Build 0)  -->
<svg version="1.1" id="圖層_1" xmlns="http://www.w3.org/2000/svg" xmlns:xlink="http://www.w3.org/1999/xlink" x="0px" y="0px"
	 viewBox="0 0 14.2 16" style="enable-background:new 0 0 14.2 16;" xml:space="preserve">
<style type="text/css">
	.st0{fill:#FFFFFF;}
</style>
<path class="st0" d="M4.7,8c0-0.3,0.1-0.7,0.4-0.9l6.4-6.4c0.5-0.5,1.3-0.5,1.8,0s0.5,1.3,0,1.8L7.8,8l5.5,5.5
	c0.5,0.5,0.5,1.3,0,1.8s-1.3,0.5-1.8,0L5.1,8.9C4.8,8.7,4.7,8.3,4.7,8"/>
<path class="st0" d="M1.7,0.3L1.7,0.3c0.7,0,1.2,0.5,1.2,1.2v12.9c0,0.7-0.5,1.2-1.2,1.2l0,0c-0.7,0-1.2-0.5-1.2-1.2V1.5
	C0.5,0.9,1,0.3,1.7,0.3z"/>
</svg>
