<?xml version="1.0" encoding="utf-8"?>
<!-- Generator: Adobe Illustrator 26.2.1, SVG Export Plug-In . SVG Version: 6.00 Build 0)  -->
<!DOCTYPE svg PUBLIC "-//W3C//DTD SVG 1.1//EN" "http://www.w3.org/Graphics/SVG/1.1/DTD/svg11.dtd" [
	<!ENTITY ns_extend "http://ns.adobe.com/Extensibility/1.0/">
	<!ENTITY ns_ai "http://ns.adobe.com/AdobeIllustrator/10.0/">
	<!ENTITY ns_graphs "http://ns.adobe.com/Graphs/1.0/">
	<!ENTITY ns_vars "http://ns.adobe.com/Variables/1.0/">
	<!ENTITY ns_imrep "http://ns.adobe.com/ImageReplacement/1.0/">
	<!ENTITY ns_sfw "http://ns.adobe.com/SaveForWeb/1.0/">
	<!ENTITY ns_custom "http://ns.adobe.com/GenericCustomNamespace/1.0/">
	<!ENTITY ns_adobe_xpath "http://ns.adobe.com/XPath/1.0/">
]>
<svg version="1.1" id="_x3C_圖層_x3E_" xmlns:x="&ns_extend;" xmlns:i="&ns_ai;" xmlns:graph="&ns_graphs;"
	 xmlns="http://www.w3.org/2000/svg" xmlns:xlink="http://www.w3.org/1999/xlink" x="0px" y="0px" viewBox="0 0 44 44"
	 style="enable-background:new 0 0 44 44;" xml:space="preserve">
<style type="text/css">
	.st0{fill:#FFFFFF;}
	.st1{fill:#38251D;}
	.st2{fill:#E5353E;}
</style>
<metadata>
	<sfw  xmlns="&ns_sfw;">
		<slices></slices>
		<sliceSourceBounds  bottomLeftOrigin="true" height="43.5" width="44" x="528" y="-571.7"></sliceSourceBounds>
	</sfw>
</metadata>
<g>
	<g>
		<path class="st0" d="M43.1,42.2c0,0.5-0.4,0.9-0.9,0.9H1.6c-0.5,0-0.9-0.4-0.9-0.9V5.8C0.8,5.4,1.1,5,1.6,5h40.7
			c0.5,0,0.9,0.4,0.9,0.9V42.2z"/>
		<path class="st1" d="M42.3,43.7H1.6c-0.8,0-1.5-0.7-1.5-1.5V5.8c0-0.8,0.7-1.5,1.5-1.5h40.7c0.8,0,1.5,0.7,1.5,1.5v36.4
			C43.8,43.1,43.1,43.7,42.3,43.7z M1.6,5.6c-0.1,0-0.2,0.1-0.2,0.2v36.4c0,0.1,0.1,0.2,0.2,0.2h40.7c0.1,0,0.2-0.1,0.2-0.2V5.8
			c0-0.1-0.1-0.2-0.2-0.2H1.6z"/>
	</g>
	<g>
		<path class="st2" d="M43.4,11.6c0,0.5-0.4,0.9-0.9,0.9h-41c-0.5,0-0.9-0.4-0.9-0.9V5.8C0.6,5.4,1,5,1.5,5h41
			c0.5,0,0.9,0.4,0.9,0.9V11.6z"/>
		<path class="st1" d="M42.5,13.1h-41c-0.8,0-1.5-0.7-1.5-1.5V5.8C0,5,0.7,4.3,1.5,4.3h41C43.3,4.3,44,5,44,5.8v5.7
			C44,12.4,43.3,13.1,42.5,13.1z M1.5,5.6c-0.1,0-0.2,0.1-0.2,0.2v5.7c0,0.1,0.1,0.2,0.2,0.2h41c0.1,0,0.2-0.1,0.2-0.2V5.8
			c0-0.1-0.1-0.2-0.2-0.2H1.5z"/>
	</g>
	<g>
		<path class="st0" d="M9.9,7.8c0,0.5-0.4,0.9-0.9,0.9H6.7c-0.5,0-0.9-0.4-0.9-0.9V1.8c0-0.5,0.4-0.9,0.9-0.9h2.4
			c0.5,0,0.9,0.4,0.9,0.9V7.8z"/>
		<path class="st1" d="M9.1,9.4H6.7c-0.8,0-1.5-0.7-1.5-1.5V1.8c0-0.8,0.7-1.5,1.5-1.5h2.4c0.8,0,1.5,0.7,1.5,1.5v6.1
			C10.6,8.7,9.9,9.4,9.1,9.4z M6.7,1.6c-0.1,0-0.2,0.1-0.2,0.2v6.1c0,0.1,0.1,0.2,0.2,0.2h2.4c0.1,0,0.2-0.1,0.2-0.2V1.8
			c0-0.1-0.1-0.2-0.2-0.2H6.7z"/>
	</g>
	<g>
		<path class="st0" d="M19.5,7.8c0,0.5-0.4,0.9-0.9,0.9h-2.4c-0.5,0-0.9-0.4-0.9-0.9V1.8c0-0.5,0.4-0.9,0.9-0.9h2.4
			c0.5,0,0.9,0.4,0.9,0.9V7.8z"/>
		<path class="st1" d="M18.7,9.4h-2.4c-0.8,0-1.5-0.7-1.5-1.5V1.8c0-0.8,0.7-1.5,1.5-1.5h2.4c0.8,0,1.5,0.7,1.5,1.5v6.1
			C20.2,8.7,19.5,9.4,18.7,9.4z M16.3,1.6c-0.1,0-0.2,0.1-0.2,0.2v6.1c0,0.1,0.1,0.2,0.2,0.2h2.4c0.1,0,0.2-0.1,0.2-0.2V1.8
			c0-0.1-0.1-0.2-0.2-0.2H16.3z"/>
	</g>
	<g>
		<path class="st0" d="M29.2,7.8c0,0.5-0.4,0.9-0.9,0.9h-2.4c-0.5,0-0.9-0.4-0.9-0.9V1.8c0-0.5,0.4-0.9,0.9-0.9h2.4
			c0.5,0,0.9,0.4,0.9,0.9V7.8z"/>
		<path class="st1" d="M28.3,9.4h-2.4c-0.8,0-1.5-0.7-1.5-1.5V1.8c0-0.8,0.7-1.5,1.5-1.5h2.4c0.8,0,1.5,0.7,1.5,1.5v6.1
			C29.8,8.7,29.1,9.4,28.3,9.4z M25.9,1.6c-0.1,0-0.2,0.1-0.2,0.2v6.1c0,0.1,0.1,0.2,0.2,0.2h2.4c0.1,0,0.2-0.1,0.2-0.2V1.8
			c0-0.1-0.1-0.2-0.2-0.2H25.9z"/>
	</g>
	<g>
		<path class="st0" d="M38.8,7.8c0,0.5-0.4,0.9-0.9,0.9h-2.4c-0.5,0-0.9-0.4-0.9-0.9V1.8c0-0.5,0.4-0.9,0.9-0.9h2.4
			c0.5,0,0.9,0.4,0.9,0.9V7.8z"/>
		<path class="st1" d="M37.9,9.4h-2.4c-0.8,0-1.5-0.7-1.5-1.5V1.8c0-0.8,0.7-1.5,1.5-1.5h2.4c0.8,0,1.5,0.7,1.5,1.5v6.1
			C39.4,8.7,38.8,9.4,37.9,9.4z M35.5,1.6c-0.1,0-0.2,0.1-0.2,0.2v6.1c0,0.1,0.1,0.2,0.2,0.2h2.4c0.1,0,0.2-0.1,0.2-0.2V1.8
			c0-0.1-0.1-0.2-0.2-0.2H35.5z"/>
	</g>
</g>
</svg>
