<?xml version="1.0" encoding="utf-8"?>
<!-- Generator: Adobe Illustrator 23.1.1, SVG Export Plug-In . SVG Version: 6.00 Build 0)  -->
<svg version="1.1" id="圖層_1" xmlns="http://www.w3.org/2000/svg" xmlns:xlink="http://www.w3.org/1999/xlink" x="0px" y="0px"
	 viewBox="0 0 17.7 16" style="enable-background:new 0 0 17.7 16;" xml:space="preserve">
<style type="text/css">
	.st0{fill:#FFFFFF;}
</style>
<g>
	<path class="st0" d="M9.1,7.1L2.7,0.7c-0.5-0.5-1.3-0.5-1.8,0S0.4,2,0.9,2.5L6.4,8l-5.5,5.5c-0.5,0.5-0.5,1.3,0,1.8
		c0.2,0.2,0.6,0.4,0.9,0.4s0.7-0.1,0.9-0.4l6.4-6.4C9.6,8.4,9.6,7.6,9.1,7.1z M16.8,7.1l-6.4-6.4c-0.5-0.5-1.3-0.5-1.8,0
		C8.1,1.2,8.1,2,8.6,2.5L14.1,8l-5.5,5.5c-0.5,0.5-0.5,1.3,0,1.8c0.2,0.2,0.6,0.4,0.9,0.4c0.3,0,0.7-0.1,0.9-0.4l6.4-6.4
		C17.3,8.4,17.3,7.6,16.8,7.1z"/>
</g>
</svg>
