<?xml version="1.0" encoding="utf-8"?>
<!-- Generator: Adobe Illustrator 23.1.1, SVG Export Plug-In . SVG Version: 6.00 Build 0)  -->
<svg version="1.1" id="圖層_1" xmlns="http://www.w3.org/2000/svg" xmlns:xlink="http://www.w3.org/1999/xlink" x="0px" y="0px"
	 viewBox="0 0 14.2 16" style="enable-background:new 0 0 14.2 16;" xml:space="preserve">
<style type="text/css">
	.st0{fill:#FFFFFF;}
</style>
<path class="st0" d="M9.5,8c0,0.3-0.1,0.7-0.4,0.9l-6.4,6.4c-0.5,0.5-1.3,0.5-1.8,0s-0.5-1.3,0-1.8L6.4,8L0.9,2.5
	C0.4,2,0.4,1.2,0.9,0.7s1.3-0.5,1.8,0l6.4,6.4C9.4,7.3,9.5,7.7,9.5,8"/>
<path class="st0" d="M12.5,15.7L12.5,15.7c-0.7,0-1.2-0.5-1.2-1.2v-13c0-0.7,0.5-1.2,1.2-1.2l0,0c0.7,0,1.2,0.5,1.2,1.2v12.9
	C13.7,15.1,13.1,15.7,12.5,15.7z"/>
</svg>
