<?xml version="1.0" encoding="utf-8"?>
<!-- Generator: Adobe Illustrator 16.0.0, SVG Export Plug-In . SVG Version: 6.00 Build 0)  -->
<!DOCTYPE svg PUBLIC "-//W3C//DTD SVG 1.1//EN" "http://www.w3.org/Graphics/SVG/1.1/DTD/svg11.dtd">
<svg version="1.1" id="圖層_1" xmlns="http://www.w3.org/2000/svg" xmlns:xlink="http://www.w3.org/1999/xlink" x="0px" y="0px"
	 width="156.371px" height="60.881px" viewBox="0 0 156.371 60.881" enable-background="new 0 0 156.371 60.881"
	 xml:space="preserve">
<path id="path290_1_" fill="#D6343C" d="M0.121,60.882l13.516-45.441C16.161,6.949,25.178,0,33.67,0h122.822L142.98,45.44
	c-2.526,8.492-11.543,15.441-20.034,15.441H0.121"/>
<g>
	<path id="path300_1_" fill="#FFFFFF" d="M20.524,47.743l-0.087-34.615l9.139-0.02l7.22,12.662c2.063,3.643,4.13,7.954,5.68,11.852
		l0.152-0.002c-0.527-4.57-0.692-9.24-0.702-14.427l-0.021-10.113l7.183-0.02l0.092,34.61l-8.222,0.023L33.533,34.36
		c-2.065-3.691-4.337-8.156-6.038-12.206l-0.156,0.051c0.217,4.57,0.329,9.444,0.347,15.099l0.025,10.418L20.524,47.743"/>
	<path id="path302_1_" fill="#FFFFFF" d="M76.764,32.966l-12.735,0.031l0.022,8.217l14.218-0.031l0.022,6.414l-22.084,0.055
		l-0.082-34.609l21.36-0.055l0.018,6.42l-13.509,0.033l0.02,7.189l12.733-0.027L76.764,32.966"/>
	<path id="path304_1_" fill="#FFFFFF" d="M88.516,47.575l-8.296-34.59l8.369-0.023l2.654,14.271
		c0.783,4.106,1.511,8.577,2.081,12.065l0.1-0.002c0.561-3.748,1.373-7.912,2.23-12.18l2.898-14.175l8.317-0.022l2.815,14.574
		c0.776,4.057,1.347,7.752,1.874,11.605h0.1c0.506-3.857,1.27-7.914,1.973-12.021l2.793-14.182l7.958-0.016l-8.858,34.63
		l-8.463,0.029l-2.969-14.891c-0.674-3.491-1.246-6.729-1.669-10.682h-0.099c-0.609,3.907-1.165,7.191-1.979,10.686L97.098,47.56
		L88.516,47.575"/>
	<path id="path306_1_" fill="#FFFFFF" d="M126.976,43.372c-0.005-2.719,1.89-4.678,4.615-4.688c2.72-0.004,4.522,1.943,4.584,4.666
		c0.005,2.67-1.79,4.682-4.562,4.686C128.842,48.044,126.983,46.046,126.976,43.372L126.976,43.372z M128.656,36.126l-1.236-23.257
		l8.161-0.024l-1.072,23.271L128.656,36.126"/>
</g>
</svg>
