<?xml version="1.0" encoding="utf-8"?>
<!-- Generator: Adobe Illustrator 23.1.1, SVG Export Plug-In . SVG Version: 6.00 Build 0)  -->
<svg version="1.1" id="圖層_1" xmlns="http://www.w3.org/2000/svg" xmlns:xlink="http://www.w3.org/1999/xlink" x="0px" y="0px"
	 viewBox="0 0 20 20" style="enable-background:new 0 0 20 20;" xml:space="preserve">
<style type="text/css">
	.st0{clip-path:url(#SVGID_2_);fill:#FFFFFF;stroke:#FFFFFF;stroke-width:2;stroke-miterlimit:10;}
	.st1{clip-path:url(#SVGID_4_);fill:url(#SVGID_5_);}
	.st2{clip-path:url(#SVGID_7_);fill:url(#SVGID_8_);}
	.st3{clip-path:url(#SVGID_10_);fill:url(#SVGID_11_);}
	.st4{clip-path:url(#SVGID_13_);fill:url(#SVGID_14_);}
	.st5{clip-path:url(#SVGID_16_);fill:url(#SVGID_17_);}
	.st6{clip-path:url(#SVGID_19_);fill:url(#SVGID_20_);}
	.st7{clip-path:url(#SVGID_22_);fill:url(#SVGID_23_);}
	.st8{clip-path:url(#SVGID_25_);fill:url(#SVGID_26_);}
	.st9{clip-path:url(#SVGID_28_);fill:url(#SVGID_29_);}
	.st10{clip-path:url(#SVGID_31_);fill:url(#SVGID_32_);}
	.st11{clip-path:url(#SVGID_34_);fill:url(#SVGID_35_);}
</style>
<g>
	<defs>
		<path id="SVGID_1_" d="M9.3,1.6L7.1,6C7.1,6.1,6.9,6.3,6.8,6.3L1.9,7c-0.8,0.1-1,0.7-0.4,1.3L5,11.7c0.1,0.1,0.2,0.3,0.1,0.4
			L4.3,17C4.2,17.6,4.4,18,4.9,18h0c0,0,0,0,0,0c0.1,0,0.3-0.1,0.5-0.2l4.4-2.3c0.1-0.1,0.3-0.1,0.4,0l4.4,2.3
			c0.7,0.4,1.2,0,1.1-0.8l-0.8-4.9c0-0.1,0-0.3,0.1-0.4l3.6-3.5c0.6-0.6,0.4-1.2-0.4-1.3l-4.9-0.7c-0.1,0-0.3-0.1-0.3-0.2l-2.2-4.5
			C10.5,1.2,10.2,1,10,1C9.8,1,9.5,1.2,9.3,1.6"/>
	</defs>
	<use xlink:href="#SVGID_1_"  style="overflow:visible;fill:#FFFFFF;"/>
	<clipPath id="SVGID_2_">
		<use xlink:href="#SVGID_1_"  style="overflow:visible;"/>
	</clipPath>
	<rect x="-2.5" y="-2.8" transform="matrix(0.7813 -0.6241 0.6241 0.7813 -3.799 8.338)" class="st0" width="25" height="24.9"/>
	<use xlink:href="#SVGID_1_"  style="overflow:visible;fill:none;stroke:#FFFFFF;stroke-width:2;stroke-miterlimit:10;"/>
</g>
<g>
	<defs>
		<path id="SVGID_3_" d="M9.4,1.5L7.2,6C7.1,6.2,6.9,6.3,6.8,6.3L1.8,7C1.1,7.1,0.9,7.7,1.4,8.2L5,11.7c0.1,0.1,0.2,0.3,0.1,0.5
			l-0.8,4.9c-0.1,0.8,0.3,1.1,1,0.7l4.4-2.3c0.1-0.1,0.3-0.1,0.5,0l4.4,2.3c0.7,0.4,1.1,0,1-0.7l-0.8-4.9c0-0.1,0-0.3,0.1-0.5
			l3.6-3.5c0.6-0.5,0.4-1.1-0.4-1.2l-4.9-0.7c-0.1,0-0.3-0.1-0.4-0.3l-2.2-4.5C10.5,1.2,10.2,1,10,1C9.8,1,9.5,1.2,9.4,1.5"/>
	</defs>
	<clipPath id="SVGID_4_">
		<use xlink:href="#SVGID_3_"  style="overflow:visible;"/>
	</clipPath>
	
		<linearGradient id="SVGID_5_" gradientUnits="userSpaceOnUse" x1="-0.184" y1="149.5381" x2="-7.068101e-02" y2="149.5381" gradientTransform="matrix(88.5982 172.506 172.506 -88.5982 -25773.1055 13283.9629)">
		<stop  offset="0" style="stop-color:#FFEB61"/>
		<stop  offset="0.3" style="stop-color:#FFC400"/>
		<stop  offset="1" style="stop-color:#C7871F"/>
	</linearGradient>
	<polygon class="st1" points="15.3,-6.4 26.1,14.6 4.7,25.6 -6.1,4.6 	"/>
</g>
<g>
	<defs>
		<path id="SVGID_6_" d="M1.8,7C1.1,7.1,0.9,7.7,1.4,8.2l1,1l7.5,1L3.3,6.8L1.8,7z"/>
	</defs>
	<clipPath id="SVGID_7_">
		<use xlink:href="#SVGID_6_"  style="overflow:visible;"/>
	</clipPath>
	
		<linearGradient id="SVGID_8_" gradientUnits="userSpaceOnUse" x1="-3.5192" y1="145.3848" x2="-3.4059" y2="145.3848" gradientTransform="matrix(-3.7524 11.2573 11.2573 3.7524 -1644.3086 -497.7304)">
		<stop  offset="0" style="stop-color:#FFDE3D"/>
		<stop  offset="0.49" style="stop-color:#FAF0B8"/>
		<stop  offset="1" style="stop-color:#FFD42B"/>
	</linearGradient>
	<polygon class="st2" points="11,7.2 9.1,13 -0.1,9.9 1.8,4.1 	"/>
</g>
<g>
	<defs>
		<path id="SVGID_9_" d="M9.4,1.6L8.7,2.9l1.3,7.5l1.2-7.4l-0.7-1.3c-0.2-0.4-0.4-0.5-0.6-0.5C9.8,1.1,9.6,1.3,9.4,1.6"/>
	</defs>
	<clipPath id="SVGID_10_">
		<use xlink:href="#SVGID_9_"  style="overflow:visible;"/>
	</clipPath>
	
		<linearGradient id="SVGID_11_" gradientUnits="userSpaceOnUse" x1="6.2292" y1="146.7457" x2="6.3425" y2="146.7457" gradientTransform="matrix(-11.8651 -0.1245 -0.1245 11.8651 102.826 -1734.6539)">
		<stop  offset="0" style="stop-color:#FFDE3D"/>
		<stop  offset="0.49" style="stop-color:#FAF0B8"/>
		<stop  offset="1" style="stop-color:#FFE34A"/>
	</linearGradient>
	<polygon class="st3" points="11.3,10.4 8.6,10.4 8.7,1.1 11.4,1.1 	"/>
</g>
<g>
	<defs>
		<path id="SVGID_12_" d="M10,10.3l7.4-1.1l1.1-1c0.6-0.5,0.4-1.1-0.4-1.2l-1.4-0.2L10,10.3z"/>
	</defs>
	<clipPath id="SVGID_13_">
		<use xlink:href="#SVGID_12_"  style="overflow:visible;"/>
	</clipPath>
	
		<linearGradient id="SVGID_14_" gradientUnits="userSpaceOnUse" x1="7.8336" y1="156.508" x2="7.9469" y2="156.508" gradientTransform="matrix(-3.4682 -11.3477 -11.3477 3.4682 1818.0002 -444.4948)">
		<stop  offset="0" style="stop-color:#F2B805"/>
		<stop  offset="0.49" style="stop-color:#FFF580"/>
		<stop  offset="1" style="stop-color:#FCC200"/>
	</linearGradient>
	<polygon class="st4" points="10.8,12.9 9.1,7.1 18.3,4.3 20.1,10 	"/>
</g>
<g>
	<defs>
		<path id="SVGID_15_" d="M4.6,15.6l-0.3,1.5c-0.1,0.8,0.3,1.1,1,0.7l1.3-0.7l3.3-6.8L4.6,15.6z"/>
	</defs>
	<clipPath id="SVGID_16_">
		<use xlink:href="#SVGID_15_"  style="overflow:visible;"/>
	</clipPath>
	
		<linearGradient id="SVGID_17_" gradientUnits="userSpaceOnUse" x1="-7.8479" y1="154.1756" x2="-7.7346" y2="154.1756" gradientTransform="matrix(9.5249 7.0768 7.0768 -9.5249 -1009.7115 1537.9445)">
		<stop  offset="0" style="stop-color:#F7BD03"/>
		<stop  offset="0.49" style="stop-color:#FFD633"/>
		<stop  offset="1" style="stop-color:#EDB008"/>
	</linearGradient>
	<polygon class="st5" points="6.2,7.6 13.7,13.1 7.9,20.9 0.5,15.4 	"/>
</g>
<g>
	<defs>
		<path id="SVGID_18_" d="M13.3,17.1l1.3,0.7c0.7,0.4,1.1,0,1-0.7l-0.3-1.5L10,10.3L13.3,17.1z"/>
	</defs>
	<clipPath id="SVGID_19_">
		<use xlink:href="#SVGID_18_"  style="overflow:visible;"/>
	</clipPath>
	
		<linearGradient id="SVGID_20_" gradientUnits="userSpaceOnUse" x1="1.3718" y1="138.3741" x2="1.4851" y2="138.3741" gradientTransform="matrix(-9.5247 7.0768 7.0768 9.5247 -952.8593 -1313.7832)">
		<stop  offset="0" style="stop-color:#E3A80D"/>
		<stop  offset="0.49" style="stop-color:#FFD633"/>
		<stop  offset="1" style="stop-color:#E3A60F"/>
	</linearGradient>
	<polygon class="st6" points="19.5,15.4 12,20.9 6.2,13.1 13.7,7.6 	"/>
</g>
<g>
	<defs>
		<path id="SVGID_21_" d="M9.6,4.1L8,7.3c0,0.1-0.2,0.2-0.3,0.2L4.3,8C3.8,8,3.6,8.4,4,8.8l2.5,2.4c0.1,0.1,0.1,0.2,0.1,0.3L6,15
			c-0.1,0.5,0.2,0.8,0.7,0.5l3.1-1.6c0.1,0,0.2,0,0.3,0l3.1,1.6c0.5,0.3,0.8,0,0.7-0.5l-0.6-3.4c0-0.1,0-0.2,0.1-0.3L16,8.8
			C16.4,8.4,16.2,8,15.7,8l-3.5-0.5c-0.1,0-0.2-0.1-0.3-0.2l-1.5-3.1c-0.1-0.2-0.3-0.4-0.4-0.4C9.8,3.8,9.7,3.9,9.6,4.1"/>
	</defs>
	<clipPath id="SVGID_22_">
		<use xlink:href="#SVGID_21_"  style="overflow:visible;"/>
	</clipPath>
	
		<linearGradient id="SVGID_23_" gradientUnits="userSpaceOnUse" x1="-0.5606" y1="149.4352" x2="-0.4473" y2="149.4352" gradientTransform="matrix(57.0282 133.0804 133.0804 -57.0282 -19845.3223 8605.4756)">
		<stop  offset="0" style="stop-color:#FFEB61"/>
		<stop  offset="0.27" style="stop-color:#FFC400"/>
		<stop  offset="1" style="stop-color:#C7871F"/>
	</linearGradient>
	<polygon class="st7" points="14.4,-0.8 20.7,13.9 5.6,20.4 -0.7,5.6 	"/>
</g>
<g>
	<defs>
		<path id="SVGID_24_" d="M9.6,4.1L8,7.3c0,0.1-0.2,0.2-0.3,0.2L4.3,8C3.8,8,3.6,8.4,4,8.8l2.5,2.4c0.1,0.1,0.1,0.2,0.1,0.3L6,15
			c-0.1,0.5,0.2,0.8,0.7,0.5l3.1-1.6c0.1,0,0.2,0,0.3,0l3.1,1.6c0.5,0.3,0.8,0,0.7-0.5l-0.6-3.4c0-0.1,0-0.2,0.1-0.3L16,8.8
			C16.4,8.4,16.2,8,15.7,8l-3.5-0.5c-0.1,0-0.2-0.1-0.3-0.2l-1.5-3.1c-0.1-0.2-0.3-0.4-0.4-0.4C9.8,3.8,9.7,3.9,9.6,4.1"/>
	</defs>
	<clipPath id="SVGID_25_">
		<use xlink:href="#SVGID_24_"  style="overflow:visible;"/>
	</clipPath>
	
		<linearGradient id="SVGID_26_" gradientUnits="userSpaceOnUse" x1="-0.5606" y1="149.4352" x2="-0.4473" y2="149.4352" gradientTransform="matrix(57.0282 133.0804 133.0804 -57.0282 -19845.3223 8605.4756)">
		<stop  offset="0" style="stop-color:#FFEB61"/>
		<stop  offset="0.27" style="stop-color:#FFC400"/>
		<stop  offset="1" style="stop-color:#C7871F"/>
	</linearGradient>
	<polygon class="st8" points="14.4,-0.8 20.7,13.9 5.6,20.4 -0.7,5.6 	"/>
</g>
<g>
	<defs>
		<path id="SVGID_27_" d="M9.6,4.1L8,7.3c0,0.1-0.2,0.2-0.3,0.2L4.3,8C3.8,8,3.6,8.4,4,8.8l2.5,2.4c0.1,0.1,0.1,0.2,0.1,0.3L6,15
			c-0.1,0.5,0.2,0.8,0.7,0.5l3.1-1.6c0.1,0,0.2,0,0.3,0l3.1,1.6c0.5,0.3,0.8,0,0.7-0.5l-0.6-3.4c0-0.1,0-0.2,0.1-0.3L16,8.8
			C16.4,8.4,16.2,8,15.7,8l-3.5-0.5c-0.1,0-0.2-0.1-0.3-0.2l-1.5-3.1c-0.1-0.2-0.3-0.4-0.4-0.4C9.8,3.8,9.7,3.9,9.6,4.1"/>
	</defs>
	<clipPath id="SVGID_28_">
		<use xlink:href="#SVGID_27_"  style="overflow:visible;"/>
	</clipPath>
	
		<linearGradient id="SVGID_29_" gradientUnits="userSpaceOnUse" x1="-0.5606" y1="149.4352" x2="-0.4473" y2="149.4352" gradientTransform="matrix(57.0282 133.0804 133.0804 -57.0282 -19845.3223 8605.4756)">
		<stop  offset="0" style="stop-color:#FFEB61"/>
		<stop  offset="0.27" style="stop-color:#FFC400"/>
		<stop  offset="1" style="stop-color:#C7871F"/>
	</linearGradient>
	<polygon class="st9" points="14.4,-0.8 20.7,13.9 5.6,20.4 -0.7,5.6 	"/>
</g>
<g>
	<defs>
		<path id="SVGID_30_" d="M4.4,17.1l0.8-4.9c0-0.2,0-0.4-0.2-0.5L1.5,8.2C1,7.7,1.2,7.2,1.9,7.1l4.9-0.7c0.2,0,0.4-0.2,0.4-0.3
			l2.2-4.5c0.3-0.7,0.8-0.7,1.1,0l2.2,4.5c0.1,0.1,0.3,0.3,0.4,0.3l4.9,0.7c0.7,0.1,0.9,0.6,0.4,1.1l-3.6,3.5
			c-0.1,0.1-0.2,0.3-0.2,0.5l0.8,4.9c0.1,0.7-0.3,1-0.9,0.7l-4.4-2.3c-0.1-0.1-0.4-0.1-0.5,0l-4.4,2.3c-0.2,0.1-0.3,0.1-0.4,0.1
			c0,0,0,0,0,0C4.5,17.9,4.3,17.6,4.4,17.1 M9.3,1.6L7.1,6C7.1,6.1,6.9,6.3,6.8,6.3L1.9,7c-0.8,0.1-1,0.7-0.4,1.3L5,11.7
			c0.1,0.1,0.2,0.3,0.1,0.4L4.3,17C4.2,17.6,4.4,18,4.9,18h0c0,0,0,0,0,0c0.1,0,0.3-0.1,0.5-0.2l4.4-2.3c0.1-0.1,0.3-0.1,0.4,0
			l4.4,2.3c0.7,0.4,1.2,0,1.1-0.8l-0.8-4.9c0-0.1,0-0.3,0.1-0.4l3.6-3.5c0.6-0.6,0.4-1.2-0.4-1.3l-4.9-0.7c-0.1,0-0.3-0.1-0.3-0.2
			l-2.2-4.5C10.5,1.2,10.2,1,10,1C9.8,1,9.5,1.2,9.3,1.6"/>
	</defs>
	<clipPath id="SVGID_31_">
		<use xlink:href="#SVGID_30_"  style="overflow:visible;"/>
	</clipPath>
	
		<linearGradient id="SVGID_32_" gradientUnits="userSpaceOnUse" x1="-0.4238" y1="149.6335" x2="-0.3105" y2="149.6335" gradientTransform="matrix(66.1883 82.8657 82.8657 -66.1883 -12365.3809 9943.7568)">
		<stop  offset="0" style="stop-color:#FFFFFF"/>
		<stop  offset="1" style="stop-color:#FFEB61"/>
	</linearGradient>
	<polygon class="st10" points="12,-7.9 27.5,11.5 8,27.1 -7.5,7.7 	"/>
</g>
<g>
	<defs>
		<path id="SVGID_33_" d="M6.1,15l0.6-3.4c0-0.1,0-0.3-0.1-0.4L4.1,8.7C3.8,8.4,3.8,8.1,4.3,8l3.5-0.5c0.1,0,0.3-0.1,0.3-0.2
			l1.5-3.1c0.2-0.4,0.5-0.4,0.7,0l1.5,3.1c0.1,0.1,0.2,0.2,0.3,0.2L15.7,8c0.5,0.1,0.6,0.4,0.2,0.7l-2.5,2.4
			c-0.1,0.1-0.2,0.3-0.1,0.4l0.6,3.4c0.1,0.3-0.1,0.5-0.3,0.5c-0.1,0-0.2,0-0.3-0.1l-3.1-1.6c-0.1-0.1-0.3-0.1-0.4,0l-3.1,1.6
			c-0.1,0.1-0.2,0.1-0.3,0.1C6.2,15.5,6.1,15.3,6.1,15 M9.5,4.1L7.9,7.2c0,0.1-0.1,0.1-0.2,0.1L4.3,7.9C3.7,8,3.5,8.4,4,8.8l2.5,2.4
			c0.1,0.1,0.1,0.2,0.1,0.2L5.9,15c-0.1,0.6,0.3,0.9,0.8,0.6l3.1-1.6c0.1,0,0.2,0,0.3,0l3.1,1.6c0.1,0.1,0.3,0.1,0.4,0.1
			c0.3,0,0.5-0.3,0.5-0.7l-0.6-3.4c0-0.1,0-0.2,0.1-0.2L16,8.9c0.4-0.4,0.3-0.9-0.3-1l-3.5-0.5c-0.1,0-0.2-0.1-0.2-0.1l-1.5-3.1
			c-0.1-0.3-0.3-0.4-0.5-0.4C9.8,3.7,9.6,3.8,9.5,4.1"/>
	</defs>
	<clipPath id="SVGID_34_">
		<use xlink:href="#SVGID_33_"  style="overflow:visible;"/>
	</clipPath>
	
		<linearGradient id="SVGID_35_" gradientUnits="userSpaceOnUse" x1="-0.7187" y1="149.3347" x2="-0.6054" y2="149.3347" gradientTransform="matrix(38.5664 75.8304 75.8304 -38.5664 -11288.1338 5820.1499)">
		<stop  offset="0" style="stop-color:#FFF580"/>
		<stop  offset="0.24" style="stop-color:#FAF0B8"/>
		<stop  offset="1" style="stop-color:#FFC400"/>
	</linearGradient>
	<polygon class="st11" points="13.8,-1.6 21.4,13.4 6.2,21.1 -1.4,6.2 	"/>
</g>
</svg>
