<?xml version="1.0" encoding="utf-8"?>
<!-- Generator: Adobe Illustrator 23.1.1, SVG Export Plug-In . SVG Version: 6.00 Build 0)  -->
<svg version="1.1" id="圖層_1" xmlns="http://www.w3.org/2000/svg" xmlns:xlink="http://www.w3.org/1999/xlink" x="0px" y="0px"
	 viewBox="0 0 21 21" style="enable-background:new 0 0 21 21;" xml:space="preserve">
<style type="text/css">
	.st0{clip-path:url(#SVGID_2_);fill:#D2D2D2;}
</style>
<g>
	<defs>
		<rect id="SVGID_1_" y="0" width="21" height="21"/>
	</defs>
	<clipPath id="SVGID_2_">
		<use xlink:href="#SVGID_1_"  style="overflow:visible;"/>
	</clipPath>
	<path class="st0" d="M20.5,18.2l-4.9-4.9c1.1-1.7,1.7-3.7,1.4-5.9c-0.5-3.8-3.6-6.8-7.3-7.3c-5.6-0.7-10.3,4-9.6,9.6
		c0.5,3.8,3.5,6.8,7.3,7.3c2.2,0.3,4.3-0.3,5.9-1.4l4.9,4.9c0.6,0.6,1.7,0.6,2.3,0C21.2,19.9,21.2,18.8,20.5,18.2 M3.2,8.5
		c0-2.9,2.4-5.3,5.3-5.3s5.3,2.4,5.3,5.3s-2.4,5.3-5.3,5.3S3.2,11.4,3.2,8.5"/>
</g>
</svg>
