<?xml version="1.0" encoding="utf-8"?>
<!-- Generator: Adobe Illustrator 26.2.1, SVG Export Plug-In . SVG Version: 6.00 Build 0)  -->
<!DOCTYPE svg PUBLIC "-//W3C//DTD SVG 1.1//EN" "http://www.w3.org/Graphics/SVG/1.1/DTD/svg11.dtd" [
	<!ENTITY ns_extend "http://ns.adobe.com/Extensibility/1.0/">
	<!ENTITY ns_ai "http://ns.adobe.com/AdobeIllustrator/10.0/">
	<!ENTITY ns_graphs "http://ns.adobe.com/Graphs/1.0/">
	<!ENTITY ns_vars "http://ns.adobe.com/Variables/1.0/">
	<!ENTITY ns_imrep "http://ns.adobe.com/ImageReplacement/1.0/">
	<!ENTITY ns_sfw "http://ns.adobe.com/SaveForWeb/1.0/">
	<!ENTITY ns_custom "http://ns.adobe.com/GenericCustomNamespace/1.0/">
	<!ENTITY ns_adobe_xpath "http://ns.adobe.com/XPath/1.0/">
]>
<svg version="1.1" id="_xEFF5__xEED3__x5F_1" xmlns:x="&ns_extend;" xmlns:i="&ns_ai;" xmlns:graph="&ns_graphs;"
	 xmlns="http://www.w3.org/2000/svg" xmlns:xlink="http://www.w3.org/1999/xlink" x="0px" y="0px" viewBox="0 0 284 284"
	 style="enable-background:new 0 0 284 284;" xml:space="preserve">
<style type="text/css">
	.st0{fill:#6FCABD;}
	.st1{fill:#FFFFFF;}
	.st2{fill-rule:evenodd;clip-rule:evenodd;fill:#7F7F80;}
	.st3{fill-rule:evenodd;clip-rule:evenodd;fill:#A3D3F2;}
	.st4{fill-rule:evenodd;clip-rule:evenodd;fill:#040000;}
	.st5{fill:#040000;}
	.st6{fill-rule:evenodd;clip-rule:evenodd;fill:#FFFFFF;}
	.st7{fill-rule:evenodd;clip-rule:evenodd;fill:#F5E374;}
</style>
<metadata>
	<sfw  xmlns="&ns_sfw;">
		<slices></slices>
		<sliceSourceBounds  bottomLeftOrigin="true" height="284" width="284" x="153.3" y="287.7"></sliceSourceBounds>
	</sfw>
</metadata>
<circle class="st0" cx="142" cy="142" r="142"/>
<g>
	<path class="st1" d="M220.3,164.7c-0.1-5-0.8-9.2-2-12.7c-1.4-4-3.5-7.3-6.4-9.6c-3.7-3-20.4-13.8-22.2-15l-13.4-11.6
		c-0.4-0.3-0.9-0.5-1.4-0.5l-3.4,0c-0.8-6.9-1.4-15.3-1.5-17.5c1.9-3.5,2.6-6.9,2.6-9.2c0-0.7,0-1.4-0.1-2c1.8-0.4,3.6-1.8,5-3.9
		c1.8-2.8,2.6-6.3,2.3-9.9c0.8-1.9,3.5-9.1,2.4-17.7c0.1-0.4,0.9-1.3,1.3-1.8c1.1-1.3,2.4-2.9,2-4.7c-0.1-0.7-0.6-1.7-2-2.4
		c-3.6-1.8-4.7-3.5-6.1-5.8c-0.7-1.1-1.5-2.5-2.7-3.9c-6.5-7.8-13.5-12.9-21-15.4c-6.9-2.3-14.3-2.2-21.8,0.1
		c-7.5,2.4-9.8,6.6-10,7.1l1.3,0.6c-1.7,1.4-3.4,2.9-5.3,4.4c-0.4-0.1-0.8,0-1.2,0.2c-0.4,0.2-10.6,5.1-11.7,21
		c-0.6,8.2,0.2,13.7,3,20c-0.7,0.4-1.3,0.9-1.9,1.5c-1.7,1.9-2.2,4.5-1.5,7.8c1.1,5.4,3.9,8.5,6.1,10.3c2.2,1.7,4.8,2.8,7.2,3.1
		c-0.6,7.5,5.5,12.1,10.1,15c1.1,0.7,2.3,1.3,3.6,1.9c0,0.2,0.1,0.4,0.2,0.6c0.3,0.7,0.5,2.3,0.5,4.2l-4.7,0.8
		c-0.2-3.4-1.2-6.7-4.6-7.9c-1.5-0.5-3-0.4-4.4,0.2c-2,1-3.4,2.9-4.2,4.5c-1.2-0.6-2.7-1.4-4.1-2.2c-3-1.6-5.7-2-8.1-1.2
		c-0.1,0-0.2,0.1-0.4,0.1c-2.1-2.9-5.2-6.9-9.5-11.9c-3.8-4.4-7.9-4.4-10.3-2.5c-2.8,2.2-3,6.5-0.4,10c2.9,4,8.5,12.4,11.3,16.7
		c-3.5,6.6-5.7,11.1-5.5,13.5c0.1,1.5,1.6,3.9,4.9,8.3c-1.8,1.4-6.4,5.5-6.9,11.4c-0.5,6.1-0.8,43.5-0.8,46.5
		c-0.2,1.6-1.3,11.3,0.5,16.1c0.9,2.3,3.3,4.8,5.7,6.8c-1.4,0.1-3.1,0.3-4.8,0.6c-6.9,1.2-10.7,3.7-11.3,7.2
		c-0.5,3.2,0.7,6.1,1.8,8.1c0,1,0.3,3.3,2.4,6.1c0,1.9,0.5,4.6,2.6,6.4c-0.2,1.7,0.3,4.5,3.8,7.3c1.9,1.6,4.1,2.4,6.2,2.4
		c1,0,2-0.2,3-0.6c2.2-0.9,3.6-2.8,3.7-5c0.1-1.3-0.3-2.2-0.8-2.8c1.1-0.4,2-0.4,2.6,0c1.9,1.6,6.2,3.1,10.7,3.8
		c3.2,0.5,9.1,1,13-1.5c3.2-2.1,7.2-1.7,12.2-1.1c2.3,0.2,4.8,0.5,7.5,0.6c2.5,0,7.8,0.2,14,0.4c15.4,0.5,36.5,1.3,41.1,0.8
		c1.5-0.1,2.8-0.7,4-1.6c0.6,0.1,0.9,0.2,1,0.2c0.1,0,0.2,0,0.3,0c0.5,0,1-0.2,1.3-0.5c0.5-0.5,13.1-11.1,15.7-20
		c2.4-8,0.9-15,0.6-16.5C221.7,219.3,220.9,181.9,220.3,164.7z"/>
	<path class="st1" d="M89.2,76.2C88,76,87,76.8,86.8,77.9l-1.2,7.6c-0.2,1.1,0.6,2.2,1.7,2.4c0.1,0,0.2,0,0.3,0c1,0,1.9-0.7,2.1-1.8
		l1.2-7.6C91.1,77.4,90.3,76.4,89.2,76.2z"/>
	<path class="st1" d="M74.6,80.9c-0.7-0.9-1.9-1.2-2.9-0.5c-0.9,0.7-1.2,1.9-0.5,2.9l4.6,6.6c0.4,0.6,1.1,0.9,1.7,0.9
		c0.4,0,0.8-0.1,1.2-0.4c0.9-0.7,1.2-1.9,0.5-2.9L74.6,80.9z"/>
	<path class="st1" d="M70.5,94.3l-7.7-5.1c-1-0.6-2.3-0.4-2.9,0.6c-0.6,1-0.4,2.3,0.6,2.9l7.7,5.1c0.4,0.2,0.8,0.3,1.2,0.3
		c0.7,0,1.3-0.3,1.7-0.9C71.7,96.3,71.4,95,70.5,94.3z"/>
	<g>
		<path class="st2" d="M177.2,43.6c-2.5-2.5-5.4-7.1-7.5-10c-7.7-10.5-25.2-11.6-33.6-10.7c-8.4,0.9-13.1,6.8-20.4,12.5
			c-7.3,5.6-7.6,11.6-8.9,21.5c-0.6,4.4,0.8,15.1,2.5,17.4c2,2.7,4.6-1,4.6-1s1.1-11.1,4.8-16.7c3.8-5.5,6.3-7.1,6.3-7.1
			s3.3,5.5,9.7,8.2c5.3,2.2,9.1,1.8,17.4,1c0.8-0.1-6-1.5-9.9-4.9c-3.9-3.5-5.1-9-4.4-9c2.2-0.1,7.2-1.2,11.1,2.8
			c7.2,7.4,17,11.6,17,11.6l0.1,6.2c0.1,0,4.8-0.7,7.3,2.9c2.5,3.6,2.7,11.3,2.7,11.3s3.3-9.4,4.9-19.4c0.2-1.6-0.1-4.6,0.6-6.9
			c0.5-1.8,2.1-2.7,1.4-4.5C181.7,46.3,179.6,46,177.2,43.6z"/>
		<path class="st3" d="M218.5,153.7l-7.6-9l-20.1-13.2l-15.8-14.1l-5.3,0.1c0.9,3.7,0.4,4.9,2,6.6l-19.5,10.2l-18.1-5.8l0-7.6
			l-5.9,0.9L106,138l-17.1,15.7l-2.3,44.2l1,22.5l6.5,8.1L195.3,253l12.6,0.3l7.3-5.8l5.9-9.1l-1.8-52.6L218.5,153.7z"/>
		<path class="st4" d="M153.2,75c-1.5,0.1-2.6,1.8-2.5,3.7c0.2,1.9,1.5,3.4,3.1,3.2c1.5-0.1,2.6-1.8,2.5-3.7
			C156.1,76.3,154.7,74.9,153.2,75z"/>
		<path class="st4" d="M130.5,78c-1.5,0.1-2.6,1.8-2.5,3.7c0.2,1.9,1.5,3.4,3.1,3.2c1.5-0.1,2.6-1.8,2.5-3.7
			C133.4,79.3,132.1,77.8,130.5,78z"/>
		<path class="st5" d="M142.2,91.1c0.3,0.1,0.6,0.2,0.8,0.2c0.8,0,1.6-0.5,1.9-1.2c0.5-1.1,0-2.3-1.1-2.7c-0.4-0.2-0.9-0.5-1.2-0.7
			c0.1-0.4,0.5-1,1-1.4c0.8-0.8,0.8-2.1,0-2.9c-0.8-0.8-2.1-0.8-2.9,0c-0.5,0.5-2.8,3-2.1,5.6C139.1,89.6,141.3,90.7,142.2,91.1z
			 M142.6,86.8C142.6,86.8,142.6,86.8,142.6,86.8S142.6,86.8,142.6,86.8z"/>
		<path class="st5" d="M122.2,66.2l3.3,2.5l0,0c0.1-0.1,2-2.4,6.5-1.3c1.1,0.3,2.2-0.4,2.5-1.6c0.3-1.1-0.4-2.2-1.6-2.5
			C125.7,61.8,122.3,66,122.2,66.2z"/>
		<path class="st5" d="M106.2,233c-4.7-1.4-15.8-9.4-17.1-12.9c-1.3-3.4-0.6-11.4-0.2-14.2c0-0.1,0-0.2,0-0.3
			c0-0.4,0.3-40.2,0.8-46.2c0.5-5.1,5.8-8.8,5.8-8.8c1-0.6,1.2-1.9,0.6-2.9c-0.6-1-1.9-1.2-2.9-0.6c-0.3,0.2-7,4.8-7.6,11.9
			c-0.5,6.1-0.8,43.5-0.8,46.5c-0.2,1.6-1.3,11.3,0.5,16.1c1.2,3.3,6,7.2,8.8,9.2c4.1,3,8.4,5.5,11.1,6.2c0.2,0.1,0.4,0.1,0.6,0.1
			c0.9,0,1.7-0.6,2-1.5C108,234.4,107.3,233.3,106.2,233z"/>
		<path class="st5" d="M220.3,164.7c-0.1-5-0.8-9.2-2-12.7c-1.4-4-3.5-7.3-6.4-9.6c-3.7-3-20.4-13.8-22.2-15l-13.4-11.6
			c-0.4-0.3-0.9-0.5-1.4-0.5l-3.4,0c-0.8-6.9-1.4-15.3-1.5-17.5c1.9-3.5,2.6-6.9,2.6-9.2c0-0.7,0-1.4-0.1-2c1.8-0.4,3.6-1.8,5-3.9
			c2.3-3.6,3-8.2,1.8-12.8c-0.8-3.2-2.7-4.7-4.1-5.3c-2.1-0.9-4.4-0.7-6.2-0.3l-0.6-3.8c-0.2-1.1-1.2-1.9-2.4-1.7
			c-1.1,0.2-1.9,1.2-1.7,2.4l0.8,4.8c-0.6,0.6-0.8,1.6-0.3,2.4c0.5,1,1.8,1.4,2.8,0.9c1-0.5,4.1-1.7,6-0.9c0.3,0.1,1.3,0.6,1.8,2.5
			c1.2,4.9-0.5,8.3-1.3,9.5c-0.8,1.2-1.7,1.9-2.3,2.1c0,0,0,0,0,0c-0.3-1.1-0.5-2.2-0.7-3.5c-0.2-1.1-1.2-1.9-2.4-1.8
			c-1.1,0.2-1.9,1.2-1.8,2.4c0.2,1.5,0.5,2.8,0.8,3.9c0.4,1.7,0.8,3.1,0.7,5.2c0,2.1-0.9,5.8-3.3,9.2c-5.9,8.6-12.3,14.1-17.4,15.2
			c-5.4,1.1-12.6-1.3-17.3-4.3c-6.1-3.8-8.6-7.3-8.1-11.5c0.5-4.9-0.8-8.7-3.9-17c-2-5.3-1.8-10.9,0.5-16.5c1.8-4.2,4.2-7,4.3-7
			c0.8-0.8,0.7-2.2-0.1-2.9c-0.8-0.8-2.2-0.7-2.9,0.1c-0.1,0.1-2.9,3.2-5,8.1c-2.8,6.6-3,13.4-0.7,19.7c2.9,7.8,4.1,11.1,3.7,15.1
			c-0.8,7.7,5.3,12.5,10,15.5c1.1,0.7,2.3,1.3,3.6,1.9c0,0.2,0.1,0.4,0.2,0.6c0.3,0.7,0.5,2.3,0.5,4.2l-6.3,1.1
			c-1.1,0.2-1.9,1.3-1.7,2.4c0.2,1.1,1.3,1.9,2.4,1.7l5.4-0.9c0,0.7-0.1,1.3-0.2,1.9c-0.1,1.1,0.7,2.2,1.8,2.3
			c1.1,0.1,2.2-0.7,2.3-1.8c0.1-1.2,0.6-5.9,0.2-9.6c3.9,1.2,8.2,1.8,12.1,1c3.3-0.7,9.8-3.4,17.7-13.7c0.5,6.8,1.5,17.6,2.7,21.7
			c0.3,1.1,1.5,1.8,2.6,1.4c1.1-0.3,1.8-1.5,1.4-2.6c-0.3-1-0.6-2.6-0.8-4.5l2.1,0l12.9,11.2c0.1,0.1,0.2,0.1,0.2,0.2
			c0.2,0.1,18.3,11.8,21.9,14.8c4.4,3.6,6.6,9.8,6.9,19.2c0.5,17.9,1.4,57.7,1.4,58.1c0,0.2,0,0.3,0.1,0.5c0,0.1,1.8,6.7-0.5,14.5
			c-1.9,6.6-10.9,15-13.6,17.4c-2.7-0.6-10.6-3-14.9-9.5c-0.8-1.2-1.7-2.3-2.5-3.3c-2.4-2.9-4.5-5.5-4.1-11.2l10.2-9.3
			c0.7-0.6,0.9-1.7,0.4-2.5c-1.5-2.8-1.8-3.9-1.7-4.3c0.1-0.5,1.5-1.3,2.1-1.6c0.7-0.4,1.1-1.1,1.1-1.9l-0.9-43.4c0-1.2-1-2.1-2.1-2
			c-1.2,0-2.1,1-2,2.1l0.9,42.2c-1.5,0.9-2.7,2-3.1,3.8c-0.3,1.6,0.2,3.4,1.4,5.6l-9.7,8.7c-0.4,0.3-0.6,0.8-0.7,1.3
			c-0.8,8,2.3,11.7,5,15c0.8,1,1.6,1.9,2.2,3c6.2,9.5,18.1,11.5,18.6,11.6c0.1,0,0.2,0,0.3,0c0.5,0,1-0.2,1.3-0.5
			c0.5-0.5,13.1-11.1,15.7-20c2.4-8,0.9-15,0.6-16.5C221.7,219.3,220.9,181.9,220.3,164.7z"/>
		<g>
			<path class="st6" d="M77,236.5c-0.7,4.8,3.2,9,3.2,9l15.2-15.3C95.4,230.2,77.9,230.2,77,236.5z"/>
			<path class="st5" d="M95.4,228.1C95.4,228.1,95.4,228.1,95.4,228.1c-0.2,0-4.6,0-9.2,0.8c-6.9,1.2-10.7,3.7-11.3,7.2
				c-0.9,5.7,3.5,10.5,3.7,10.7c0.4,0.4,0.9,0.7,1.5,0.7c0,0,0,0,0,0c0.6,0,1.1-0.2,1.5-0.6l15.2-15.3c0.6-0.6,0.8-1.5,0.4-2.3
				C97,228.6,96.2,228.1,95.4,228.1z M80.4,242.3c-0.8-1.4-1.7-3.4-1.4-5.5c0.3-1.8,4.2-3.1,7.8-3.7c1.1-0.2,2.2-0.3,3.2-0.4
				L80.4,242.3z"/>
		</g>
		<g>
			<path class="st6" d="M184.8,231.4l-60.2,5.4c0,0-17.3-4.7-25.2-5.7c-7.8-1-8.1,0.6-12.4,4.2c-3.6,3-8.5,4.7-8.3,8.7
				c0,0-0.2,2.5,2.5,5.8c0,0-0.6,4.3,2.8,6.2c0,0-1.6,3,2.8,6.6c4.4,3.6,9.2,1.6,9.5-1.7c0.2-2.7-3.4-2.4-3.4-2.4s5.6-4.3,8.7-1.8
				c3,2.5,15.7,5.7,21.3,2.1c5.5-3.6,12.2-1,20.9-0.9s48.5,1.9,54.9,1.3c6.4-0.6,8.3-11.9,2.9-19.1
				C196.1,232.7,192,231.2,184.8,231.4z"/>
			<path class="st5" d="M184.8,229.3c0,0-0.1,0-0.1,0l-59.8,5.4c-2.6-0.7-17.7-4.7-25.1-5.7c-7.3-0.9-9,0.3-12.3,3.2
				c-0.5,0.5-1,0.9-1.7,1.4c-0.9,0.7-1.9,1.4-2.9,2.1c-3,2-6.3,4.2-6.1,8.2c0,0.8,0.1,3.3,2.4,6.4c0,1.9,0.5,4.6,2.6,6.4
				c-0.2,1.7,0.3,4.5,3.8,7.3c1.9,1.6,4.1,2.4,6.2,2.4c1,0,2-0.2,3-0.6c2.2-0.9,3.6-2.8,3.7-5c0.1-1.3-0.3-2.2-0.8-2.8
				c1.1-0.4,2-0.4,2.6,0c1.9,1.6,6.2,3.1,10.7,3.8c3.2,0.5,9.1,1,13-1.5c3.2-2.1,7.2-1.7,12.2-1.1c2.3,0.2,4.8,0.5,7.5,0.6
				c2.5,0,7.8,0.2,14,0.4c15.4,0.5,36.5,1.3,41.1,0.8c2.9-0.3,5.4-2.3,6.7-5.4c2.3-5.2,1.3-12.2-2.4-17.1
				C197,230.5,192.1,229.1,184.8,229.3z M80.9,244.1C80.9,244.1,80.9,244.1,80.9,244.1C80.9,244.1,80.9,244.1,80.9,244.1z
				 M201.8,254c-0.5,1.2-1.5,2.7-3.3,2.9c-4.4,0.4-26.2-0.3-40.6-0.8c-6.2-0.2-11.5-0.4-14.1-0.4c-2.5,0-4.9-0.3-7.2-0.5
				c-5.3-0.6-10.4-1.1-14.9,1.8c-2,1.3-5.7,1.6-10.1,0.9c-4-0.6-7.6-2-8.7-2.9c-1.3-1.1-3.7-2.1-7.6-0.4c-2,0.9-3.6,2.1-3.6,2.1
				c-0.7,0.6-1,1.5-0.7,2.4c0.3,0.9,1.2,1.4,2.1,1.3c0.4,0,1,0.1,1.2,0.2c0,0,0,0,0,0c0,0.6-0.5,1.2-1.2,1.5
				c-1.1,0.5-2.9,0.4-4.9-1.2c-2.7-2.2-2.3-3.7-2.3-4c0.3-0.5,0.4-1,0.2-1.5c-0.1-0.6-0.6-1-1.1-1.3c-2.1-1.2-1.8-4-1.8-4.1
				c0.1-0.6-0.1-1.1-0.5-1.6c-1.9-2.3-2-4.1-2-4.3c0-0.1,0-0.2,0-0.3c-0.1-1.6,1.5-2.8,4.2-4.6c1.1-0.7,2.2-1.5,3.3-2.4
				c0.7-0.6,1.3-1.1,1.8-1.5c2.6-2.3,3.3-2.9,9-2.2c7.6,1,24.7,5.6,24.9,5.7c0.2,0.1,0.5,0.1,0.7,0.1l60.1-5.4
				c6.3-0.1,9.8,0.9,14.9,7.7C203,245.3,203.2,250.8,201.8,254z"/>
		</g>
		<path class="st5" d="M91.2,237.3l-11.4,10.9c-0.8,0.8-0.9,2.1-0.1,2.9c0.4,0.4,1,0.6,1.5,0.6c0.5,0,1-0.2,1.4-0.6l11.4-10.9
			c0.8-0.8,0.9-2.1,0.1-2.9C93.4,236.6,92,236.5,91.2,237.3z"/>
		<path class="st5" d="M153.9,93.8c-0.9-0.7-2.2-0.5-2.9,0.4c-5,6.5-12.2,3.2-12.5,3c-1-0.5-2.3-0.1-2.8,0.9c-0.5,1-0.1,2.3,0.9,2.8
			c0.1,0.1,2.7,1.3,6.1,1.5c0.2,0,0.4,0,0.6,0c3.2,0,7.5-1,11-5.6C155,95.8,154.8,94.5,153.9,93.8z"/>
		<path class="st5" d="M119.5,93.2c-3.5,0.2-9.2-2.8-10.7-10c-0.4-1.9-0.2-3.3,0.6-4.2c1.1-1.3,3.5-1.5,4.4-1.4
			c1.1,0.1,2.1-0.8,2.2-1.9c0.1-1.1-0.8-2.1-1.9-2.2c-0.2,0-0.9-0.1-1.9,0c-2.7-5.9-3.4-10.8-2.9-18.5c0.4-5.6,2.1-10.2,5-13.8
			c2.2-2.6,4.2-3.7,4.3-3.7c1-0.5,1.5-1.7,1-2.8c-0.5-1-1.7-1.5-2.8-1c-0.4,0.2-10.6,5.1-11.7,21c-0.6,8.2,0.2,13.7,3,20
			c-0.7,0.4-1.3,0.9-1.9,1.5c-1.7,1.9-2.2,4.5-1.5,7.8c1.1,5.4,3.9,8.5,6.1,10.3c2.5,2,5.5,3.1,8.3,3.1c0.2,0,0.4,0,0.5,0
			c1.1-0.1,2-1,2-2.2C121.7,94,120.7,93.1,119.5,93.2z"/>
		<path class="st5" d="M92.6,101.5c-3.8-4.4-7.9-4.4-10.3-2.5c-2.8,2.2-3,6.5-0.4,10c4,5.5,13,19.3,13.1,19.4
			c0.4,0.5,0.9,0.9,1.6,0.9c0,0,0.1,0,0.1,0c0.6,0,1.2-0.3,1.6-0.7l6.9-7.9c0.6-0.7,0.7-1.7,0.2-2.4
			C105.2,118,101.3,111.6,92.6,101.5z M96.9,123.8c-2.8-4.2-8.6-13-11.7-17.3c-1.4-1.9-1.2-3.6-0.3-4.3c0.2-0.2,0.5-0.3,0.9-0.3
			c0.9,0,2.3,0.6,3.7,2.3c6.3,7.2,10,12.6,11.5,14.9L96.9,123.8z"/>
		<g>
			<path class="st6" d="M123.5,164.3c-0.6-4.6,0.3-9.9,3-15.8c3.2-6.9-0.7-16.4-0.9-20.1c-0.2-3.8,1.8-12.7-3-14.4
				c-4.5-1.6-6.9,5.7-6.9,5.7s-3.1-1.7-6.1-3.3c-4.1-2.1-8.2-2.2-10.9,3.3c-2.4,4.9-9.2,16.4-9,19.4c0.3,3,14.4,19.2,14.4,21.3
				c-0.1,6.9-1.5,30.1-3.8,42.9c-1.4,7.8-3.7,18.3-0.7,24.4c3,6.1,12.7,12.9,18.5,12.4c5.8-0.6,12.5-12.5,11.9-19.1
				C129.5,214.3,124.4,171,123.5,164.3z"/>
			<path class="st5" d="M125.6,164c-0.6-4.4,0.4-9.5,2.8-14.6c2.7-5.7,1.1-12.8,0-17.5c-0.4-1.5-0.7-2.9-0.7-3.7
				c0-0.8,0-1.9,0.1-3.1c0.3-4.5,0.7-11.3-4.5-13.2c-1.5-0.5-3-0.4-4.4,0.2c-2,1-3.4,2.9-4.2,4.5c-1.2-0.6-2.7-1.4-4.1-2.2
				c-3-1.6-5.7-2-8.1-1.2c-2.3,0.8-4.2,2.6-5.6,5.4c-0.6,1.2-1.5,2.9-2.4,4.6c-4.2,7.9-7,13.2-6.8,15.9c0.2,2,2.6,5.4,8.3,12.8
				c2.4,3.1,5.6,7.3,6.1,8.6c-0.2,7.3-1.5,29.8-3.8,42.3c-0.1,0.5-0.2,1.1-0.3,1.6c-1.5,7.9-3.3,17.7-0.2,24.1
				c1.6,3.2,4.9,6.8,8.9,9.5c3.8,2.6,7.7,4.1,10.8,4.1c0.3,0,0.6,0,0.9,0c4.7-0.5,8.5-6,9.9-8.3c2.7-4.5,4.2-9.5,3.9-13.1
				C131.5,214.2,126.5,170.8,125.6,164z M124.6,231.7c-2.2,3.6-4.8,6.1-6.8,6.3c-4.7,0.5-13.7-5.7-16.4-11.2
				c-2.5-5.1-0.8-14.2,0.6-21.5c0.1-0.5,0.2-1.1,0.3-1.6c2.4-12.9,3.7-36.2,3.9-43.3c0-1.6-1.4-3.6-7-11c-2.6-3.4-7-9.1-7.4-10.6
				c0-0.3,0.2-1.5,1.9-5.2c1.3-2.7,2.9-5.7,4.3-8.4c1-1.9,1.9-3.5,2.5-4.7c0.9-1.8,2-2.9,3.2-3.3c1.3-0.4,2.9-0.1,4.9,0.9
				c2.9,1.5,6,3.2,6,3.2c0.5,0.3,1.2,0.3,1.8,0.1c0.6-0.2,1-0.7,1.2-1.3c0,0,0.6-1.6,1.6-2.9c1.4-1.9,2.4-1.6,2.7-1.5
				c2.2,0.8,1.9,5.7,1.7,9c-0.1,1.3-0.2,2.6-0.1,3.6c0.1,1.2,0.4,2.6,0.8,4.4c1,4.4,2.4,10.4,0.3,14.8c-2.8,6-3.9,11.7-3.2,16.9
				c0.9,6.8,6,50,6.5,56.5C128.1,223.8,126.8,228,124.6,231.7z M102.1,160.7L102.1,160.7L102.1,160.7z"/>
		</g>
		<path class="st5" d="M116.7,117.8c-1-0.6-2.3-0.2-2.8,0.8c-0.6,1-0.2,2.3,0.8,2.8c1.2,0.7,2.5,1.9,2.6,2.4c0,0.2-0.1,0.4-0.1,0.5
			c-0.9-0.8-1.9-1.4-2.8-1.9c-0.5-0.3-0.9-0.6-1.3-0.8c-2.4-1.7-4.6-2.4-6.6-1.9c-1.5,0.3-2.8,1.3-3.7,2.9
			c-0.8,1.4-6.2,10.6-6.3,10.7c-0.6,1-0.3,2.3,0.7,2.9c1,0.6,2.3,0.3,2.9-0.7c0.2-0.4,5.5-9.3,6.3-10.8c0.4-0.8,0.8-0.8,1-0.9
			c0.3-0.1,1.3-0.1,3.3,1.3c0.5,0.3,1,0.6,1.5,1c1.3,0.8,3.1,1.9,3.3,2.9c0.1,0.2,0,0.5-0.1,0.9c-2-1.1-4.1-2.1-5.4-2.5
			c-0.6-0.2-2.2-0.6-3.3,0.5c-0.9,0.9-4.1,6.6-6,9.9c-0.6,1-0.2,2.3,0.8,2.8c1,0.6,2.3,0.2,2.8-0.8c1.8-3.2,3.9-6.8,4.9-8.4
			c0.8,0.3,2,0.8,3.5,1.6c1.9,1,3,1.9,3.5,2.3c-0.3,1.3-1.5,4.1-2.6,4.9c-0.2,0.2-0.2,0.1-0.3,0.1c-0.4-0.3-0.9-1.2-0.5-2.6
			c0.3-1.1-0.3-2.3-1.4-2.6c-1.1-0.3-2.3,0.3-2.6,1.4c-0.5,1.8-0.4,3.5,0.2,4.8c0,0.7,0.2,1.3,0.8,1.8c0.1,0,5.5,4.3,3.7,9.6
			c-0.4,1.1,0.2,2.3,1.3,2.6c0.2,0.1,0.4,0.1,0.7,0.1c0.9,0,1.7-0.6,2-1.4c1.4-4.2,0.1-7.8-1.6-10.3c0.1-0.1,0.2-0.1,0.3-0.2
			c1.4-1.1,2.5-3.1,3.2-4.6c0.6-1.5,1.3-3.4,1-4.6c-0.1-0.4-0.3-1-1.5-2.1c0.8-1.4,1-2.8,0.7-4.2c0-0.1,0-0.1,0-0.2
			c0.9-0.7,1.8-1.9,1.9-3.8C121.5,120.8,117.8,118.4,116.7,117.8z M117.2,123.8C117.2,123.8,117.2,123.8,117.2,123.8
			S117.2,123.8,117.2,123.8z"/>
		<path class="st5" d="M171.6,122.2l-20.9,10.9l-18.5-8.3c-1-0.5-2.3,0-2.8,1c-0.5,1,0,2.3,1,2.8l19.4,8.7c0.3,0.1,0.6,0.2,0.9,0.2
			c0.3,0,0.7-0.1,1-0.2l21.8-11.4c1-0.5,1.4-1.8,0.9-2.8C173.9,122.1,172.6,121.7,171.6,122.2z"/>
		<path class="st5" d="M207.3,220.2c-4-2.8-7.9-4.6-8.1-4.7c-1-0.5-2.3,0-2.8,1c-0.5,1,0,2.3,1,2.8c0,0,3.8,1.7,7.5,4.3
			c4.5,3.2,7.1,6.3,7.2,8.8c0.1,1.1,1,1.9,2.1,1.9c0,0,0.1,0,0.1,0c1.1-0.1,2-1.1,1.9-2.2C216.1,228.3,213,224.2,207.3,220.2z"/>
		<g>
			<polygon class="st7" points="149.7,140.1 143.7,144.4 146.4,156.8 156.5,158.4 159.8,145.6 153.3,140.5 			"/>
			<path class="st5" d="M161.1,143.9l-6.5-5.1c-0.3-0.2-0.7-0.4-1.1-0.4L150,138c-0.5-0.1-1,0.1-1.4,0.4l-6,4.3
				c-0.7,0.5-1,1.3-0.8,2.1l2.7,12.4c0.2,0.8,0.9,1.5,1.7,1.6l10.1,1.6c0.1,0,0.2,0,0.3,0c0.9,0,1.8-0.6,2-1.6l3.3-12.8
				C162.1,145.3,161.8,144.4,161.1,143.9z M155,156l-6.8-1.1l-2.1-9.6l4.3-3.1l2.2,0.2l5,3.9L155,156z"/>
		</g>
		<g>
			<polygon class="st7" points="146.4,156.8 138.9,207.8 150.6,224.4 159.1,210.5 156.1,157.9 			"/>
			<path class="st5" d="M158.1,157.8c-0.1-1-0.8-1.8-1.8-2l-9.6-1.1c-1.1-0.1-2.1,0.7-2.3,1.8l-7.5,51c-0.1,0.5,0,1.1,0.4,1.5
				l11.7,16.7c0.4,0.6,1,0.9,1.7,0.9c0,0,0,0,0.1,0c0.7,0,1.3-0.4,1.7-1l8.5-13.9c0.2-0.4,0.3-0.8,0.3-1.2L158.1,157.8z
				 M150.5,220.6l-9.4-13.4l7.1-48.2l5.9,0.7L157,210L150.5,220.6z"/>
		</g>
		<path class="st5" d="M87.4,87.9c0.1,0,0.2,0,0.3,0c1,0,1.9-0.7,2.1-1.8l1.2-7.6c0.2-1.1-0.6-2.2-1.7-2.4C88,76,87,76.8,86.8,77.9
			l-1.2,7.6C85.5,86.7,86.2,87.8,87.4,87.9z"/>
		<path class="st5" d="M70.5,94.3l-7.7-5.1c-1-0.6-2.3-0.4-2.9,0.6c-0.6,1-0.4,2.3,0.6,2.9l7.7,5.1c0.4,0.2,0.8,0.3,1.2,0.3
			c0.7,0,1.3-0.3,1.7-0.9C71.7,96.3,71.4,95,70.5,94.3z"/>
		<path class="st5" d="M74.6,80.9c-0.7-0.9-1.9-1.2-2.9-0.5c-0.9,0.7-1.2,1.9-0.5,2.9l4.6,6.6c0.4,0.6,1.1,0.9,1.7,0.9
			c0.4,0,0.8-0.1,1.2-0.4c0.9-0.7,1.2-1.9,0.5-2.9L74.6,80.9z"/>
		<path class="st5" d="M95.7,244l-11.5,9.8c-0.9,0.7-1,2.1-0.2,2.9c0.4,0.5,1,0.7,1.6,0.7c0.5,0,1-0.2,1.3-0.5l11.5-9.8
			c0.9-0.7,1-2.1,0.2-2.9C97.9,243.3,96.6,243.2,95.7,244z"/>
		<path class="st5" d="M141.8,143.3l-3.8,2.1l-8.7-9.3c-0.8-0.8-2.1-0.9-2.9-0.1c-0.8,0.8-0.9,2.1-0.1,2.9l9.8,10.5
			c0.4,0.4,1,0.7,1.5,0.7c0.4,0,0.7-0.1,1-0.3l5.2-2.9c1-0.6,1.4-1.8,0.8-2.8C144,143.1,142.8,142.7,141.8,143.3z"/>
		<path class="st5" d="M183.6,46.3c-3.6-1.8-4.7-3.5-6.1-5.8c-0.7-1.1-1.5-2.5-2.7-3.9c-6.5-7.8-13.5-12.9-21-15.4
			c-6.9-2.3-14.3-2.2-21.8,0.1c-7.5,2.4-9.8,6.6-10,7.1l3.8,1.8l0,0c0.1-0.1,1.7-3.1,7.5-5c14-4.4,26.9,0.3,38.3,14
			c1,1.2,1.7,2.4,2.4,3.4c1.5,2.5,3,4.8,7.2,7c-0.2,0.3-0.5,0.7-0.8,0.9c-1.2,1.4-2.5,3-2.2,4.9c1,8.6-2.2,15.9-2.3,16
			c-0.5,1,0,2.3,1,2.8c0.3,0.1,0.6,0.2,0.9,0.2c0.8,0,1.5-0.4,1.9-1.2c0.2-0.3,3.8-8.4,2.6-18.2c0.1-0.4,0.9-1.3,1.3-1.8
			c1.1-1.3,2.4-2.9,2-4.7C185.4,47.9,184.9,46.9,183.6,46.3z M182.3,55.2C182.3,55.2,182.3,55.2,182.3,55.2
			C182.3,55.2,182.3,55.2,182.3,55.2z"/>
		<path class="st5" d="M184.8,132c-0.9-0.8-2.2-0.7-2.9,0.2L167.3,149L161,144c-0.9-0.7-2.2-0.5-2.9,0.4c-0.7,0.9-0.5,2.2,0.4,2.9
			l7.8,6.1c0.4,0.3,0.8,0.4,1.3,0.4c0.6,0,1.2-0.2,1.6-0.7l15.9-18.3C185.8,134,185.7,132.7,184.8,132z"/>
		<path class="st5" d="M151.2,57c-3.8-0.5-7.1-2.6-9.6-6.2c-1-1.5-1.7-2.9-2.2-4c1.8-0.3,4.9-0.3,8.3,2.4c0.8,0.6,1.7,1.6,2.8,2.6
			c3.8,3.8,9.4,9.3,17,9.3c1.2,0,2.5-0.1,3.8-0.4c1.1-0.3,1.8-1.4,1.6-2.5c-0.3-1.1-1.4-1.8-2.5-1.6c-7.4,1.7-12.7-3.5-17-7.8
			c-1.2-1.2-2.2-2.2-3.2-3c-7.2-5.7-13.9-2.5-14.2-2.4l0.1,0.2c-1.1,0.3-1.7,1.4-1.4,2.5c0,0.1,0.9,3.4,3.3,6.9
			c1.3,2,2.9,3.6,4.5,4.9c-3.8-0.2-7.1-1.3-10-3.4c-3.4-2.4-4.9-5.4-4.9-5.5c-0.5-1-1.7-1.5-2.8-1c-1,0.5-1.5,1.7-1,2.8
			c0.1,0.2,1.8,3.9,6.1,7c2.9,2.1,7.4,4.3,13.8,4.3c2.1,0,4.5-0.2,7-0.8c0.2,0,0.3-0.1,0.5-0.2c0.8-0.2,1.5-0.9,1.6-1.8
			C153.1,58.2,152.3,57.1,151.2,57z"/>
	</g>
</g>
</svg>
