<?xml version="1.0" encoding="utf-8"?>
<!-- Generator: Adobe Illustrator 26.2.1, SVG Export Plug-In . SVG Version: 6.00 Build 0)  -->
<!DOCTYPE svg PUBLIC "-//W3C//DTD SVG 1.1//EN" "http://www.w3.org/Graphics/SVG/1.1/DTD/svg11.dtd" [
	<!ENTITY ns_extend "http://ns.adobe.com/Extensibility/1.0/">
	<!ENTITY ns_ai "http://ns.adobe.com/AdobeIllustrator/10.0/">
	<!ENTITY ns_graphs "http://ns.adobe.com/Graphs/1.0/">
	<!ENTITY ns_vars "http://ns.adobe.com/Variables/1.0/">
	<!ENTITY ns_imrep "http://ns.adobe.com/ImageReplacement/1.0/">
	<!ENTITY ns_sfw "http://ns.adobe.com/SaveForWeb/1.0/">
	<!ENTITY ns_custom "http://ns.adobe.com/GenericCustomNamespace/1.0/">
	<!ENTITY ns_adobe_xpath "http://ns.adobe.com/XPath/1.0/">
]>
<svg version="1.1" id="圖層_1" xmlns:x="&ns_extend;" xmlns:i="&ns_ai;" xmlns:graph="&ns_graphs;"
	 xmlns="http://www.w3.org/2000/svg" xmlns:xlink="http://www.w3.org/1999/xlink" x="0px" y="0px" viewBox="0 0 182 40"
	 style="enable-background:new 0 0 182 40;" xml:space="preserve">
<style type="text/css">
	.st0{fill:#00AECB;}
	.st1{fill:#FFFFFF;}
	.st2{fill:#051D5D;}
</style>
<metadata>
	<sfw  xmlns="&ns_sfw;">
		<slices></slices>
		<sliceSourceBounds  bottomLeftOrigin="true" height="92.3" width="16383" x="-8141" y="33.9"></sliceSourceBounds>
	</sfw>
</metadata>
<path class="st0" d="M2.1,37.7c-0.3,0-0.6-0.1-0.8-0.4c-0.2-0.2-0.3-0.6-0.2-0.9l0.2-1c0.6-3.2,3.2-5.5,6.4-5.8c0,0,1.3-7.1,1.3-7.1
	l-0.1,0.1c-0.2,0.1-0.4,0.2-0.6,0.2c-0.1,0-0.2,0-0.2,0c-0.3-0.1-0.5-0.2-0.7-0.5l-3.2-5.3c-0.2-0.3-0.2-0.6-0.1-0.8
	c0.1-0.3,0.3-0.5,0.5-0.7c1.7-0.8,3.3-1.8,4.9-2.8H6.9c-0.3,0-0.6-0.1-0.8-0.4c-0.2-0.2-0.3-0.6-0.2-0.9l0.3-1.5
	C6.8,6.5,9.7,4,13.1,4h7l0.3-1.7c0.1-0.5,0.5-0.9,1-0.9h6.2c0.3,0,0.6,0.1,0.8,0.4c0.2,0.2,0.3,0.6,0.2,0.9L28.5,4h10.6
	c0.3,0,0.6,0.1,0.8,0.4c0.2,0.2,0.3,0.6,0.2,0.9L39.9,7c-0.4,2.5-2.2,4.4-4.5,5.2c1.1,1,2.4,2,3.9,2.9c0.2,0.2,0.4,0.4,0.5,0.7
	c0.1,0.3,0,0.6-0.2,0.8l-4.2,6.1c-0.2,0.2-0.4,0.4-0.7,0.4c-0.1,0-0.1,0-0.2,0c-0.2,0-0.5-0.1-0.7-0.2l-0.9-0.7l-0.5,3.1
	c-0.3,1.8-1.3,3.3-2.7,4.3h5.7c0.3,0,0.6,0.1,0.8,0.4c0.2,0.2,0.3,0.6,0.2,0.9l-0.2,1.2c-0.6,3.2-3.4,5.6-6.7,5.6H2.1z"/>
<g>
	<path class="st1" d="M39.2,2.9L39.2,2.9h-9.4c0-0.1,0.1-0.3,0.1-0.5c0-1.2-0.9-2.1-2.1-2.1h0h-6.2c-1,0-1.9,0.7-2.1,1.7l-0.1,0.8
		h-6.1c-3.9,0-7.3,2.8-8,6.7l-0.3,1.5c-0.1,0.6,0.1,1.2,0.5,1.7c0.2,0.2,0.4,0.4,0.7,0.5c-0.6,0.4-1.3,0.7-2,1
		c-0.5,0.3-0.9,0.7-1.1,1.3c-0.2,0.6-0.1,1.2,0.2,1.7l3.2,5.3c0.3,0.5,0.7,0.8,1.2,0.9l-0.6,3.6l-0.2,1.4c-3.3,0.6-5.9,3.2-6.5,6.6
		l-0.2,1c-0.1,0.6,0.1,1.2,0.5,1.7s1,0.8,1.6,0.8h27.5c3.8,0,7-2.7,7.7-6.5l0.2-1.2c0.1-0.6-0.1-1.2-0.5-1.7c-0.4-0.5-1-0.8-1.6-0.8
		h-3.2c0.6-0.9,1.1-2,1.3-3.1l0.3-1.5c0.3,0.1,0.5,0.2,0.8,0.2c0.1,0,0.2,0,0.3,0c0.6-0.1,1.1-0.4,1.4-0.9l4.2-6.1
		c0.3-0.5,0.4-1.1,0.3-1.6c-0.1-0.6-0.5-1.1-1-1.4c-0.9-0.5-1.7-1.1-2.5-1.7c1.8-1.1,3.2-3,3.6-5.3l0.3-1.6c0-0.2,0.1-0.4,0.1-0.5
		C41.3,3.9,40.4,2.9,39.2,2.9z M38.6,6.8c-0.5,2.6-2.7,4.5-5.3,4.5c-0.1,0-0.2,0.1-0.3,0.2c0,0.1,0,0.2,0.1,0.3
		c1.5,1.6,3.3,3.1,5.3,4.4l-3.8,5.5l-2-1.6c-0.1,0-0.1-0.1-0.2-0.1c0,0-0.1,0-0.1,0c-0.1,0-0.2,0.1-0.2,0.2l-0.9,4.9
		c-0.5,2.6-2.7,4.5-5.3,4.5H9l0.3-1.8l1.3-7.4c0-0.1,0-0.2-0.1-0.3c-0.1,0-0.1-0.1-0.2-0.1c-0.1,0-0.1,0-0.2,0l-1.9,1.2l-2.9-4.8
		c2.6-1.3,5.1-2.9,7.5-4.7c0.1-0.1,0.1-0.2,0.1-0.3c0-0.1-0.2-0.2-0.3-0.2H7.3l0.2-1.2c0.5-2.7,2.8-4.7,5.6-4.7h7.9
		c0.1,0,0.3-0.1,0.3-0.2l0.4-2.3h5.6L27,5c0,0.1,0,0.2,0.1,0.2c0.1,0.1,0.1,0.1,0.2,0.1h11.5L38.6,6.8z M35,31.9
		c-0.5,2.6-2.7,4.5-5.3,4.5H2.5l0.1-0.6C3.1,33,5.4,31,8.2,31h26.9L35,31.9z"/>
	<path class="st1" d="M25.2,24.2H16c-0.1,0-0.3,0.1-0.3,0.3l-0.2,1.2c0,0.1,0,0.2,0.1,0.2c0.1,0.1,0.1,0.1,0.2,0.1H25
		c0.1,0,0.3-0.1,0.3-0.3l0.2-1.2c0-0.1,0-0.2-0.1-0.2S25.3,24.2,25.2,24.2z"/>
	<path class="st1" d="M16.7,15.7h2.5c0.1,0,0.3-0.1,0.3-0.2l0.5-3c0-0.1,0-0.3-0.2-0.3c0,0-0.1,0-0.1,0c-0.1,0-0.2,0-0.2,0.1
		c-1,1.1-2.1,2.1-3,3c-0.1,0.1-0.1,0.2-0.1,0.3C16.5,15.7,16.6,15.7,16.7,15.7z"/>
	<path class="st1" d="M26.1,19.4h-9.3c-0.1,0-0.3,0.1-0.3,0.3l-0.2,1.2c0,0.1,0,0.2,0.1,0.2c0.1,0.1,0.1,0.1,0.2,0.1h9.3
		c0.1,0,0.3-0.1,0.3-0.3l0.2-1.2c0-0.1,0-0.2-0.1-0.2C26.2,19.4,26.2,19.4,26.1,19.4z"/>
	<path class="st1" d="M26,12C26,12,26,12,26,12c-0.2,0-0.3,0.1-0.3,0.3l-0.5,3.1c0,0.1,0,0.2,0.1,0.2c0.1,0.1,0.1,0.1,0.2,0.1h1.4
		h1.1c0.1,0,0.2-0.1,0.3-0.2c0.1-0.1,0-0.2,0-0.3c-0.7-1-1.3-2-1.9-3.1C26.2,12.1,26.1,12,26,12z"/>
</g>
<path class="st0" d="M60.9,38.7c-0.5,0-1-0.4-1.1-1l-0.3-3.4c-0.5,0.4-1.1,0.9-1.6,1.3c-1.1,0.8-2.5,1.2-3.9,1.2
	c-2.1,0-4.1-0.9-5.4-2.5c-1.1,2.5-3.6,4.2-6.5,4.2h-1c-0.3,0-0.6-0.1-0.8-0.4C40.1,38,40,37.6,40,37.3L41,32c-0.1,0-0.2,0-0.3,0
	c-0.1,0-0.2,0-0.3,0c-0.4-0.1-0.7-0.4-0.8-0.9l-1.1-7.3c0-0.3,0-0.6,0.2-0.8c1.3-1.6,2.4-3,3.2-4.3c0.4-0.6,0.8-1.3,1.2-2.1h-1.3
	c-0.3,0-0.6-0.1-0.8-0.4c-0.2-0.2-0.3-0.6-0.2-0.9L42,8.6c0.1-0.5,0.5-0.9,1-0.9h2.2l0.1-0.6c0.6-3.4,3.5-5.8,7-5.8h1
	c0.3,0,0.6,0.1,0.8,0.4c0.2,0.2,0.3,0.6,0.2,0.9l-0.2,1.3c0.2-0.1,0.3-0.1,0.5-0.1h6.4l0.3-1.5c0.1-0.5,0.5-0.9,1-0.9h6.6
	c0.3,0,0.6,0.1,0.8,0.4c0.2,0.2,0.3,0.6,0.2,0.9l-0.2,1.2h6.8c0.3,0,0.6,0.1,0.8,0.4c0.2,0.2,0.3,0.6,0.2,0.9l-0.9,4.9
	c0,0.2-0.1,0.4-0.3,0.6c0.1,0.1,0.2,0.1,0.3,0.2c0.2,0.2,0.3,0.6,0.2,0.9l-0.3,2c-0.3,2-1.5,3.6-3.1,4.7h0.8c0.3,0,0.6,0.1,0.8,0.4
	c0.2,0.2,0.3,0.6,0.2,0.9l-0.1,0.8c-0.3,1.9-1.4,3.5-2.9,4.6c0.3,0,0.5,0.2,0.7,0.4c0.2,0.2,0.3,0.6,0.2,0.9l-0.7,4.2
	c-0.4,2.1-1.1,3.9-2,5.1c-0.9,1.3-2.1,2.2-3.3,2.7c-1.2,0.5-2.7,0.7-4.6,0.7H60.9z M49.5,30.4c3.3-1.3,4.7-2.2,5.3-2.8
	c0.5-0.4,0.8-1,1.1-1.6h-4.5l-0.4,0.6c-0.2,0.3-0.5,0.5-0.9,0.5c0,0-0.1,0-0.2,0L49.5,30.4z"/>
<g>
	<path class="st1" d="M78.7,5.3c0-0.2,0.1-0.4,0.1-0.5c0-1.2-0.9-2.1-2.1-2.1h0h-5.5c0-0.1,0-0.2,0-0.3c0-1.2-0.9-2.1-2.1-2.1h0
		h-6.6c-1,0-1.9,0.7-2.1,1.7l-0.1,0.6h-4.8c0-0.1,0-0.2,0-0.3c0-1.2-0.9-2.1-2.1-2.1h0h-1c-3.9,0-7.1,2.7-7.9,6.4h-1.3
		c-1,0-1.9,0.7-2.1,1.7l-1.2,6.8c-0.1,0.6,0.1,1.2,0.5,1.7c0.3,0.3,0.7,0.6,1.1,0.7c-0.1,0.2-0.2,0.4-0.3,0.5
		c-0.8,1.2-1.8,2.6-3.1,4.1c-0.4,0.5-0.6,1.1-0.5,1.7l1.1,7.3c0.1,0.7,0.6,1.3,1.2,1.6L39,37.2c-0.1,0.6,0.1,1.2,0.5,1.7
		c0.4,0.5,1,0.8,1.6,0.8h1c2.8,0,5.2-1.4,6.7-3.6c1.4,1.2,3.3,1.8,5.1,1.8c1.6,0,3.2-0.5,4.5-1.4c0.1,0,0.1-0.1,0.2-0.1l0.1,1.5
		c0.1,1.1,1,1.9,2.1,1.9h1.7c2,0,3.7-0.2,5-0.8c1.4-0.5,2.7-1.6,3.8-3.1c1-1.4,1.8-3.2,2.2-5.5l0.7-4.1c0-0.2,0.1-0.4,0.1-0.5
		c0-0.4-0.1-0.8-0.3-1.1c1.1-1.1,1.9-2.6,2.2-4.3l0.1-0.6c0-0.2,0.1-0.4,0.1-0.5c0-0.6-0.3-1.2-0.7-1.6c1-1.1,1.6-2.4,1.9-4l0.3-1.8
		c0-0.2,0.1-0.4,0.1-0.5c0-0.4-0.1-0.8-0.3-1.1c0-0.1,0-0.1,0-0.2L78.7,5.3z M75.5,9.3h-2.8c-0.1,0-0.2,0.1-0.3,0.2
		c-0.3,0.6-0.5,1.2-0.7,1.7c0,0.1,0,0.2,0,0.3c0.1,0.1,0.1,0.1,0.2,0.1h3.6l-0.3,1.6c-0.5,2.7-2.8,4.7-5.6,4.7h-1l0.2-1.2
		c0-0.1,0-0.2-0.1-0.2s-0.1-0.1-0.2-0.1H58.5c-0.1,0-0.3,0.1-0.3,0.2l-0.2,1.3h-5.1c-0.1,0-0.2,0.1-0.3,0.2c-0.1,0.1,0,0.2,0,0.3
		l0.7,0.9c0.1,0.1,0.1,0.1,0.2,0.1h6.2c0.1,0,0.3-0.1,0.3-0.3l0.2-1.3h6l-0.2,1.2c0,0.1,0,0.2,0.1,0.2s0.1,0.1,0.2,0.1H74L74,19.9
		c-0.5,2.7-2.8,4.7-5.6,4.7H64c-0.1,0-0.3,0.1-0.3,0.2c-0.1,0.3-0.1,0.6-0.2,0.9c0,0.1,0,0.2,0.1,0.2c0.1,0.1,0.1,0.1,0.2,0.1h8.1
		L71.2,30c-0.3,1.9-0.9,3.5-1.8,4.6c-0.8,1.1-1.7,1.9-2.7,2.2c-1,0.4-2.5,0.6-4.2,0.6h-1.5l-0.5-5.2c0-0.1-0.1-0.2-0.2-0.3
		c0,0-0.1,0-0.1,0c-0.1,0-0.2,0-0.2,0.1c-0.9,0.9-2,1.8-3.1,2.6c-0.9,0.6-2,1-3.1,1c-1.9,0-3.7-1-4.8-2.6l-0.5-0.8
		c3.6-1.3,5.9-2.5,7.1-3.6c0.9-0.9,1.6-2.1,2.1-3.5c0-0.1,0-0.2,0-0.3c-0.1-0.1-0.1-0.1-0.2-0.1h-6.6c-0.1,0-0.2,0.1-0.3,0.1
		l-0.4,0.6l-0.5-1.1c-0.1-0.1-0.2-0.2-0.3-0.2c0,0,0,0,0,0c-0.1,0-0.2,0.1-0.3,0.2l-1.4,8.1c-0.5,2.7-2.8,4.7-5.6,4.7h-0.7l1.5-8.8
		c0-0.1,0-0.3-0.2-0.3c0,0-0.1,0-0.1,0c-0.1,0-0.2,0-0.2,0.1l-1.6,2l-1-6.5c1.3-1.6,2.4-3,3.3-4.3c0.7-1.1,1.3-2.3,2-3.7
		c0-0.1,0-0.2,0-0.3c-0.1-0.1-0.2-0.1-0.3-0.1h-2.6l1.1-6.2h2.8c0.1,0,0.3-0.1,0.3-0.3l0.3-1.5c0.5-2.7,2.8-4.7,5.6-4.7H53l-1.1,6.1
		c0,0.1,0,0.2,0.1,0.2C52,9,52.1,9.1,52.2,9.1H54c0.1,0,0.3-0.1,0.3-0.3L54.9,5H62c0.1,0,0.3-0.1,0.3-0.2l0.4-2.1h6l-0.4,2
		c0,0.1,0,0.2,0.1,0.2C68.5,5,68.5,5,68.6,5h7.7L75.5,9.3z M53.8,27.1c-0.5,0.4-1.3,0.9-2.9,1.6l0.1-0.6c0.4-0.2,0.8-0.5,1.1-0.9
		l0.1-0.1H53.8z"/>
	<path class="st1" d="M60.8,31.9c1,0.1,1.9,0.2,2.8,0.2c0,0,0,0,0,0c0.3,0,0.7-0.1,1-0.3c0.3-0.2,0.6-0.7,0.9-1.3c0-0.1,0-0.2,0-0.3
		S65.4,30,65.3,30h-3.4c-0.1,0-0.2,0-0.2,0.1c-0.3,0.4-0.7,0.9-1,1.3c-0.1,0.1-0.1,0.2,0,0.3C60.6,31.8,60.7,31.8,60.8,31.9z"/>
	<path class="st1" d="M52.3,15.3H51c-0.1,0-0.3,0.1-0.3,0.3l-0.1,0.3c0,0.1,0,0.2,0.1,0.2c0.2,0.3,0.5,0.6,0.8,1l0.3,0.3
		c0.1,0.1,0.1,0.1,0.2,0.1c0,0,0.1,0,0.1,0c0.1,0,0.2-0.1,0.2-0.2l0.3-1.6c0-0.1,0-0.2-0.1-0.2S52.4,15.3,52.3,15.3z"/>
	<path class="st1" d="M66.2,9.3h-3c-0.1,0-0.2,0-0.2,0.1S63,9.6,63,9.7l0.1,1.7c0,0.2,0.1,0.3,0.3,0.3h2.2c0.1,0,0.2-0.1,0.3-0.2
		l0.7-1.7c0-0.1,0-0.2,0-0.3C66.4,9.4,66.3,9.3,66.2,9.3z"/>
	<path class="st1" d="M57,9.4c-0.1-0.1-0.1-0.1-0.2-0.1h-2.6c-0.1,0-0.3,0.1-0.3,0.2l-0.3,1.7c0,0.1,0,0.2,0.1,0.2
		c0.1,0.1,0.1,0.1,0.2,0.1h2.9c0.1,0,0.2,0,0.2-0.1c0.1-0.1,0.1-0.1,0.1-0.2c0-0.6,0-1.1,0-1.6C57.1,9.6,57.1,9.5,57,9.4z"/>
</g>
<path class="st2" d="M97.6,38.2c-0.3,0-0.5-0.2-0.7-0.4l-1-1.4l-0.1,0.6c-0.1,0.5-0.5,0.9-1,0.9H89c-0.3,0-0.6-0.1-0.8-0.4
	C88.1,37.4,88,37.2,88,37c-0.9,0.7-2.1,1.1-3.9,1.1h-2.1c-0.5,0-1-0.4-1.1-1L80.6,35c-0.4,0.9-0.9,1.8-1.4,2.6
	c-0.2,0.3-0.5,0.5-0.8,0.5c0,0-0.1,0-0.1,0c-0.3,0-0.6-0.1-0.8-0.3l-4.4-4.8c-0.3-0.3-0.4-0.8-0.1-1.2c2.3-4,3.8-8.2,4.5-12.4
	l2-11.6c0.6-3.4,3.5-5.8,7-5.8h7.6c0.2,0,0.5,0.1,0.7,0.2c0.1,0,0.1,0,0.2,0h17.1c0.3,0,0.6,0.1,0.8,0.4c0.2,0.2,0.3,0.6,0.2,0.9
	l-1.6,9c-0.1,0.4-0.2,0.9-0.5,1.3c0,0,0,0,0,0c0.2,0.2,0.3,0.6,0.2,0.9c-1.1,6.1-2.5,10.5-4,13.4c0.7,0.7,1.5,1.5,2.4,2.3
	c0.4,0.4,0.5,1,0.1,1.5l-5,5.8c-0.2,0.2-0.5,0.4-0.8,0.4c0,0,0,0,0,0c-0.3,0-0.6-0.1-0.8-0.3c-0.7-0.8-1.4-1.6-2-2.3
	c-0.9,0.8-1.8,1.6-2.8,2.5c-0.2,0.2-0.4,0.2-0.7,0.2C97.7,38.2,97.6,38.2,97.6,38.2z M100.8,13.5l-0.5-2.4l-0.4,2.4H100.8z"/>
<g>
	<path class="st1" d="M112.1,1.2L112.1,1.2h-17C94.8,1.1,94.5,1,94.1,1h0h-7.6c-3.9,0-7.3,2.8-8,6.7l-2,11.6
		c-0.7,4.1-2.2,8.1-4.4,12c-0.4,0.8-0.3,1.8,0.3,2.5l4.4,4.8c0.4,0.4,1,0.7,1.6,0.7c0.1,0,0.2,0,0.2,0c0.7-0.1,1.2-0.5,1.6-1
		c0.4,0.6,1,0.9,1.8,0.9H84c1.3,0,2.5-0.2,3.5-0.7c0.4,0.4,0.9,0.6,1.5,0.6h5.6c0.5,0,1-0.2,1.4-0.5c0.4,0.4,0.9,0.7,1.4,0.8
		c0.1,0,0.2,0,0.2,0c0.5,0,1-0.2,1.4-0.5c0.7-0.6,1.4-1.2,2-1.8c0.4,0.5,0.9,1,1.3,1.5c0.4,0.4,1,0.7,1.6,0.7c0,0,0,0,0,0
		c0.6,0,1.2-0.3,1.6-0.7l5-5.8c0.7-0.9,0.7-2.2-0.2-3c-0.7-0.6-1.3-1.2-1.8-1.7c1.5-3,2.7-7.3,3.8-13.1c0.1-0.4,0-0.8-0.1-1.1
		c0.2-0.4,0.3-0.7,0.3-1.1l1.6-8.9c0-0.2,0.1-0.4,0.1-0.5C114.2,2.1,113.3,1.2,112.1,1.2z M108.4,14.3c-0.1,0.1-0.2,0.2-0.2,0.3
		s0.2,0.2,0.3,0.2h1.3c-1.2,6.2-2.6,10.7-4.2,13.3c-0.1,0.1-0.1,0.3,0,0.4c0.8,0.9,1.7,1.8,2.8,2.8l-4.6,5.4c-0.9-1-1.7-2-2.4-2.9
		c-0.1-0.1-0.1-0.1-0.2-0.1c0,0,0,0,0,0c-0.1,0-0.2,0-0.2,0.1c-1,1-2.1,2-3.4,3l-2.3-3c-0.1-0.1-0.1-0.1-0.2-0.1c0,0,0,0-0.1,0
		c-0.1,0-0.2,0.1-0.2,0.2l-0.5,2.8h-5l5.8-33h16.5l-1.5,8.7C110,13.2,109.4,13.9,108.4,14.3z M84,36.7h-1.9l-0.6-5.9
		c0-0.1,0-0.1,0-0.1l1.3,0c0.7,0,1.1-0.4,1.2-1.1l0.5-2.8c0-0.1,0-0.2-0.1-0.2s-0.1-0.1-0.2-0.1h-1.7c-0.1,0-0.3,0.1-0.3,0.2
		c-0.3,1-0.7,2.2-1.1,3.6c0,0.1,0,0.2,0,0.3c-0.1,0-0.2,0.1-0.2,0.2c-0.8,2-1.7,3.9-2.7,5.8l-3.9-4.3c2.3-4.1,3.8-8.3,4.6-12.6
		l2-11.6c0.5-2.7,2.8-4.7,5.6-4.7h7.2l-5.3,30.1C88.1,35.7,86.6,36.7,84,36.7z"/>
	<path class="st1" d="M103.1,19.6h-2c-0.1,0-0.2,0-0.2,0.1c-0.1,0.1-0.1,0.2,0,0.3c0.4,1.1,0.7,2,1.1,2.9c0,0.1,0.2,0.2,0.3,0.2
		c0,0,0,0,0,0c0.1,0,0.2-0.1,0.3-0.2c0.3-0.9,0.7-1.9,0.9-2.8c0-0.1,0-0.2,0-0.3C103.3,19.7,103.2,19.6,103.1,19.6z"/>
	<path class="st1" d="M97,25c0-0.1-0.2-0.2-0.3-0.2c0,0,0,0,0,0c-0.1,0-0.3,0.1-0.3,0.2l-1,5.6c0,0.1,0,0.3,0.1,0.3c0,0,0.1,0,0.2,0
		c0.1,0,0.1,0,0.2-0.1l2.3-2c0.1-0.1,0.1-0.2,0.1-0.4C97.9,27.6,97.5,26.4,97,25z"/>
	<path class="st1" d="M87.3,9.3H86c-0.1,0-0.3,0.1-0.3,0.2l-0.4,2.3c0,0.1,0,0.2,0.1,0.2c0.1,0.1,0.1,0.1,0.2,0.1h1.3
		c0.1,0,0.3-0.1,0.3-0.2l0.4-2.3c0-0.1,0-0.2-0.1-0.2C87.5,9.3,87.4,9.3,87.3,9.3z"/>
	<path class="st1" d="M85.8,17.9h-1.3c-0.1,0-0.3,0.1-0.3,0.2l-0.3,1.5c0,0.3-0.1,0.5-0.2,0.8c0,0.1,0,0.2,0.1,0.3
		c0.1,0.1,0.1,0.1,0.2,0.1h1.3c0.1,0,0.3-0.1,0.3-0.3l0.4-2.3c0-0.1,0-0.2-0.1-0.2C86,17.9,85.9,17.9,85.8,17.9z"/>
	<path class="st1" d="M105.4,9.1h-5.9c-0.1,0-0.3,0.1-0.3,0.2l-0.9,5.2c0,0.1,0,0.2,0.1,0.2c0.1,0.1,0.1,0.1,0.2,0.1h3.5
		c0.1,0,0.2,0,0.2-0.1s0.1-0.2,0.1-0.3l-0.8-3.8l3,0c0.6,0,0.9-0.4,1-1l0.1-0.3c0-0.1,0-0.2-0.1-0.2C105.6,9.1,105.5,9.1,105.4,9.1z
		"/>
</g>
<path class="st2" d="M114.3,38.4c-0.5,0-1-0.4-1.1-0.9l-0.4-3.6c-0.1,0-0.1,0-0.2,0c-0.4-0.1-0.7-0.4-0.8-0.8l-0.6-2.6
	c-0.5-2.2,0.1-4.6,1.7-6.4c0.3-0.4,0.7-0.7,1-1.1h-0.7c-0.3,0-0.6-0.1-0.8-0.4c-0.2-0.2-0.3-0.6-0.2-0.9l1.1-6.4
	c0.1-0.5,0.5-0.9,1-0.9h1.7c-0.3-0.4-0.6-0.7-0.9-1.1c-0.2-0.2-0.3-0.5-0.3-0.8c0-0.3,0.2-0.6,0.4-0.7l1.5-1.2H116
	c-0.3,0-0.6-0.1-0.8-0.4c-0.2-0.2-0.3-0.6-0.2-0.9l0.3-1.5c0.6-3.4,3.5-5.8,7-5.8h9c0.3,0,0.6,0.1,0.8,0.4c0.2,0.2,0.3,0.6,0.2,0.9
	L132,4.8c0-0.1,0.1-0.1,0.1-0.2c1.4-1.9,3.5-3,5.8-3h3.3c0.4,0,0.7,0.2,0.9,0.5s0.2,0.7,0,1L141.8,4h7.3c0.3,0,0.6,0.1,0.8,0.4
	c0.2,0.2,0.3,0.6,0.2,0.9l-1.1,6.2c-0.1,0.5-0.5,0.9-1,0.9h-1.2c-0.5,0.7-1.1,1.4-1.6,2.1c0.9,0.2,2,0.4,3.1,0.6
	c0.3,0.1,0.6,0.3,0.8,0.6c0.1,0.3,0.1,0.7-0.1,1l-1.2,1.9c-1,1.6-2.6,2.7-4.4,3.1h1.8c0.3,0,0.6,0.1,0.8,0.4
	c0.2,0.2,0.3,0.6,0.2,0.9l-1.1,6.1c-0.7,4-1.6,6.4-2.8,7.5c-1.2,1.2-3,1.8-5.4,1.8H134c-0.5,0-0.9-0.3-1-0.8l-0.6-2.4
	c-0.2,0.1-0.3,0.3-0.5,0.4c-1.2,1-2.7,1.5-4.3,1.5c-2,0-3.8-0.8-5.2-2.2c-0.5,1.8-2.1,3.7-6.2,3.7H114.3z M123.1,31.4
	c1.4-0.6,2.5-1.3,3.5-2c-0.1-0.1-0.2-0.1-0.2-0.2c-0.1-0.1-0.1-0.2-0.2-0.3c-0.3,0.4-0.6,0.7-0.9,1.1c-0.2,0.2-0.5,0.4-0.8,0.4
	c-0.2,0-0.4,0-0.5-0.1l-0.6-0.4L123.1,31.4z M140.2,21.6c-0.1,0-0.2,0-0.3-0.1l0,0.1H140.2z M127.7,14.6l-0.1-0.6l-0.6,0.6H127.7z"
	/>
<g>
	<path class="st1" d="M148,13.4c1,0,1.9-0.7,2.1-1.7l1.1-6c0-0.2,0.1-0.4,0.1-0.5c0-1.2-0.9-2.1-2.1-2.1h0h-5.7c0-0.1,0-0.2,0-0.3
		c0-1.2-0.9-2.1-2.1-2.1h0c0,0,0,0,0,0c0,0,0,0,0,0l-3.3,0c-1.8,0-3.5,0.6-4.9,1.7c-0.4-0.6-1-1.1-1.8-1.1h0h-9
		c-3.9,0-7.3,2.8-8,6.7L114,9.3c-0.1,0.6,0.1,1.2,0.5,1.7c0,0,0.1,0.1,0.1,0.1c-0.4,0.4-0.7,0.9-0.8,1.4c0,0.3,0,0.7,0.1,1
		c-0.8,0.2-1.5,0.8-1.7,1.7l-1.1,6.4c-0.1,0.6,0.1,1.2,0.5,1.7c0.1,0.1,0.2,0.2,0.3,0.3c-1.7,2-2.3,4.6-1.7,7.1l0.6,2.6
		c0.1,0.6,0.5,1.1,1.1,1.4l0.3,2.9c0.1,1.1,1,1.9,2.1,1.9h2c3.7,0,5.6-1.5,6.5-3.1c1.4,1,3,1.5,4.8,1.5c1.5,0,2.9-0.4,4.1-1.1
		l0.2,0.9c0.2,1,1.1,1.6,2.1,1.6h2.9c2.6,0,4.7-0.7,6.1-2.1c1.4-1.3,2.4-3.9,3.1-8.1l1-5.9c0-0.2,0.1-0.4,0.1-0.5
		c0-0.6-0.2-1.1-0.6-1.5c0.8-0.6,1.4-1.3,1.9-2.1l1.2-1.9c0.4-0.6,0.4-1.4,0.2-2c-0.3-0.7-0.9-1.1-1.6-1.2c-0.5-0.1-0.9-0.2-1.4-0.2
		c0.1-0.1,0.2-0.2,0.2-0.3H148z M141.7,20.4c-0.7,0-1.3-0.1-1.9-0.3c-0.7-0.3-1.4-0.5-2-0.8c0,0-0.1,0-0.1,0c0,0-0.1,0-0.1,0
		c-1,0.4-2,0.8-3.1,1.2c-0.1,0.1-0.2,0.2-0.2,0.3c0,0.1,0.2,0.2,0.3,0.2h4.1l0,0.1c-0.1,0.5-0.2,0.9-0.3,1.5c0,0.1,0,0.2,0.1,0.3
		c0.1,0.1,0.1,0.1,0.2,0.1h6.2l-1,5.7c-0.6,3.6-1.4,5.9-2.4,6.8c-1,0.9-2.5,1.4-4.4,1.4h-2.7l-0.9-3.9c0-0.1-0.1-0.2-0.2-0.2
		c0,0-0.1,0-0.1,0c-0.1,0-0.2,0-0.2,0.1c-0.5,0.5-1.1,1-1.7,1.5c-1,0.8-2.2,1.2-3.4,1.2c-1.6,0-3.2-0.7-4.3-1.9l-0.5-0.6
		c3-1.3,5.2-2.7,6.8-4.3c0.1-0.1,0.1-0.2,0.1-0.3c0-0.1-0.2-0.2-0.3-0.2h-1.8l0.6-3.3c0-0.1-0.1-0.3-0.2-0.3c0,0-0.1,0-0.1,0
		c-0.1,0-0.2,0.1-0.3,0.1c-0.8,1.4-1.9,2.8-3.1,4.2l-1.7-1c0,0-0.1,0-0.2,0c0,0-0.1,0-0.1,0c-0.1,0-0.2,0.1-0.2,0.2l-1,5.7
		c-0.4,2.2-2,3.2-5,3.2h-1.8l-0.6-5.1c0-0.1-0.1-0.2-0.2-0.2c0,0-0.1,0-0.1,0c-0.1,0-0.1,0-0.2,0.1c-0.1,0.1-0.3,0.3-0.4,0.4l-0.5-2
		c-0.4-1.8,0.1-3.7,1.4-5.1c0.9-1,1.7-2,2.4-2.9c0.1-0.1,0.1-0.2,0-0.3c-0.1-0.1-0.2-0.2-0.3-0.2h-2.5l1-5.7h3.6
		c0.1,0,0.2-0.1,0.3-0.2c0.1-0.1,0-0.2,0-0.3c-0.7-0.9-1.4-1.7-2.1-2.6l3.8-2.9c0.1,0,0.1-0.1,0.1-0.2c0,0,0,0.1,0.1,0.1
		c0.5,0.6,1,1.2,1.5,1.8c0.1,0.1,0.1,0.1,0.2,0.1c0,0,0,0,0,0c0.1,0,0.2,0,0.2-0.1l1.6-1.9c0.1-0.1,0.1-0.2,0-0.3
		c0-0.1-0.2-0.2-0.3-0.2h-3.1c-0.1,0-0.2,0.1-0.3,0.2c0,0,0,0,0,0c0,0,0,0,0,0c0-0.1-0.2-0.2-0.3-0.2h-3.5l0.2-1.1
		c0.5-2.7,2.8-4.7,5.6-4.7h8.7L130.1,8c0,0.1,0,0.3,0.2,0.3c0,0,0.1,0,0.1,0c0.1,0,0.2,0,0.2-0.1c0.2-0.2,0.4-0.4,0.8-0.6
		c0.6-0.6,1.2-1.3,1.9-2.2c1.1-1.5,2.9-2.5,4.7-2.5l2.8,0l-1,2c0,0.1,0,0.2,0,0.3c0.1,0.1,0.2,0.1,0.3,0.1h8.7l-1,5.6h-1.5
		c-0.1,0-0.2,0-0.2,0.1c-1,1.4-2,2.7-2.9,3.8c-0.1,0.1-0.1,0.2-0.1,0.3c0,0.1,0.1,0.2,0.2,0.2c1.2,0.3,2.7,0.6,4.4,0.9l-1,1.5
		C145.5,19.4,143.7,20.4,141.7,20.4z"/>
	<path class="st1" d="M125.2,21.7h-1.5c-0.1,0-0.3,0.1-0.3,0.3l-0.6,3.5c0,0.1,0.1,0.3,0.2,0.3c0,0,0.1,0,0.1,0c0.1,0,0.2,0,0.2-0.1
		c0.8-1.1,1.5-2.3,2.1-3.5c0-0.1,0-0.2,0-0.3C125.4,21.7,125.3,21.7,125.2,21.7z"/>
	<path class="st1" d="M130,16.5c0.1,0.1,0.1,0.1,0.2,0.1c0,0,0,0,0.1,0c0.9-0.2,1.8-0.4,2.6-0.6c0.1,0,0.2-0.1,0.2-0.2
		c0-0.1,0-0.2,0-0.3c-0.3-0.4-0.6-0.9-0.8-1.4c0-0.1-0.1-0.1-0.2-0.2c0,0,0,0-0.1,0c-0.1,0-0.1,0-0.2,0.1l-1.8,1.3
		c-0.1,0.1-0.1,0.2-0.1,0.3c0,0,0,0.1,0.1,0.1l-0.1,0.4C129.9,16.3,129.9,16.4,130,16.5z"/>
	<path class="st1" d="M117.8,26.9c0,0-0.1,0-0.1,0c-0.1,0-0.2,0-0.2,0.1c-0.8,1.1-2,2.4-3.3,3.9c-0.1,0.1-0.1,0.2,0,0.3
		c0,0.1,0.2,0.2,0.3,0.2l1.8,0c0.7,0,1.1-0.4,1.2-1l0.6-3.2C118,27.1,117.9,27,117.8,26.9z"/>
	<path class="st1" d="M129.3,15.8c0.1-0.1,0.1-0.2,0.1-0.3l-0.9-3.8c0-0.1-0.1-0.2-0.2-0.2c0,0-0.1,0-0.1,0c-0.1,0-0.2,0-0.2,0.1
		l-3.4,3.6c0,0,0,0,0,0.1l-0.2,0.2c-0.1,0.1-0.1,0.2-0.1,0.3c0,0.1,0.2,0.2,0.3,0.2h4.5C129.1,15.9,129.2,15.9,129.3,15.8z"/>
	<path class="st1" d="M139.7,11h-3.2c-0.1,0-0.2,0.1-0.3,0.2s-0.1,0.2,0,0.3c0.4,0.8,1,1.4,1.6,1.8c0.1,0,0.1,0.1,0.2,0.1
		c0.1,0,0.1,0,0.2-0.1c0.5-0.5,1.1-1.1,1.7-1.7c0.1-0.1,0.1-0.2,0.1-0.3C140,11,139.9,11,139.7,11z"/>
	<path class="st1" d="M134.9,31.3h0.5c1,0,1.8-0.4,2.3-1.2c0.2-0.3,0.3-0.8,0.5-1.5c0-0.1,0-0.2,0-0.3c-0.1-0.1-0.1-0.1-0.2-0.1
		h-1.6c-0.1,0-0.2,0.1-0.3,0.1c-0.5,0.9-1.1,1.7-1.5,2.4c-0.1,0.1-0.1,0.2,0,0.3C134.7,31.3,134.8,31.3,134.9,31.3z"/>
	<path class="st1" d="M132.8,21C132.8,21,132.8,21,132.8,21c-0.8,0.1-1.6,0.2-2.3,0.4l-0.5-2.7c0-0.1-0.2-0.3-0.3-0.3c0,0,0,0,0,0
		c-0.1,0-0.3,0.1-0.3,0.2l-0.6,3.3c-0.1,0.2-0.2,0.4-0.3,0.7c0,0.1,0,0.2,0.1,0.3s0.1,0.1,0.2,0.1h3.6c0.1,0,0.3-0.1,0.3-0.2
		c0.1-0.5,0.2-1,0.3-1.4c0-0.1,0-0.2-0.1-0.3C133,21,132.9,21,132.8,21z"/>
</g>
<path class="st2" d="M149.5,37.6c-1.2,0-2.2-0.4-3.1-1.3c-1.7-1.7-1.7-4.4,0-6.1l4.9-4.9c0.8-0.8,1.8-1.2,2.8-1.3l0.1-0.1
	c-1.5-2.3-2.3-5-2.3-7.7c0-8,6.5-14.5,14.5-14.5s14.5,6.5,14.5,14.5s-6.5,14.5-14.5,14.5c-2.7,0-5.4-0.8-7.7-2.3l-0.1,0.1
	c-0.1,1.2-0.5,2.1-1.2,2.8l-4.9,4.9C151.8,37.1,150.7,37.6,149.5,37.6z M166.5,8c-4.6,0-8.4,3.7-8.4,8.3s3.7,8.4,8.4,8.4
	s8.4-3.7,8.4-8.4S171.1,8,166.5,8z"/>
<path class="st1" d="M166.5,2.9c7.4,0,13.4,6,13.4,13.4c0,7.4-6,13.4-13.4,13.4c-2.9,0-5.6-1-7.8-2.6l-1,1c0,0.1,0,0.1,0,0.2
	c0,0.9-0.3,1.7-1,2.3l-4.9,4.9c-0.6,0.6-1.4,1-2.3,1c-0.9,0-1.7-0.3-2.3-1c-1.3-1.3-1.3-3.3,0-4.6l4.9-4.9c0.6-0.6,1.4-1,2.3-1
	c0.1,0,0.1,0,0.2,0l1-1c-1.6-2.2-2.6-4.9-2.6-7.8C153,8.9,159,2.9,166.5,2.9 M166.5,25.7c5.2,0,9.4-4.2,9.4-9.4
	c0-5.2-4.2-9.4-9.4-9.4c-5.2,0-9.4,4.2-9.4,9.4C157,21.5,161.3,25.7,166.5,25.7 M166.5,0.8c-8.6,0-15.5,7-15.5,15.5
	c0,2.4,0.6,4.8,1.7,7c-0.8,0.3-1.4,0.7-2,1.3l-4.9,4.9c-2.1,2.1-2.1,5.5,0,7.6c1,1,2.4,1.6,3.8,1.6c1.4,0,2.8-0.6,3.8-1.6l4.9-4.9
	c0.6-0.6,1-1.3,1.3-2c2.2,1.1,4.6,1.7,7,1.7c8.6,0,15.5-7,15.5-15.5C182,7.8,175,0.8,166.5,0.8L166.5,0.8z"/>
<path class="st2" d="M167.9,8.6c-0.3-0.1-0.5,0.1-0.6,0.4c-0.1,0.3,0.1,0.5,0.4,0.6c2,0.4,3.8,1.6,4.8,3.5c0.1,0.2,0.3,0.3,0.4,0.3
	c0.1,0,0.2,0,0.2-0.1c0.2-0.1,0.3-0.4,0.2-0.7C172.2,10.5,170.2,9,167.9,8.6z"/>
</svg>
