<?xml version="1.0" encoding="utf-8"?>
<!-- Generator: Adobe Illustrator 26.2.1, SVG Export Plug-In . SVG Version: 6.00 Build 0)  -->
<!DOCTYPE svg PUBLIC "-//W3C//DTD SVG 1.1//EN" "http://www.w3.org/Graphics/SVG/1.1/DTD/svg11.dtd" [
	<!ENTITY ns_extend "http://ns.adobe.com/Extensibility/1.0/">
	<!ENTITY ns_ai "http://ns.adobe.com/AdobeIllustrator/10.0/">
	<!ENTITY ns_graphs "http://ns.adobe.com/Graphs/1.0/">
	<!ENTITY ns_vars "http://ns.adobe.com/Variables/1.0/">
	<!ENTITY ns_imrep "http://ns.adobe.com/ImageReplacement/1.0/">
	<!ENTITY ns_sfw "http://ns.adobe.com/SaveForWeb/1.0/">
	<!ENTITY ns_custom "http://ns.adobe.com/GenericCustomNamespace/1.0/">
	<!ENTITY ns_adobe_xpath "http://ns.adobe.com/XPath/1.0/">
]>
<svg version="1.1" id="Icons" xmlns:x="&ns_extend;" xmlns:i="&ns_ai;" xmlns:graph="&ns_graphs;"
	 xmlns="http://www.w3.org/2000/svg" xmlns:xlink="http://www.w3.org/1999/xlink" x="0px" y="0px" viewBox="0 0 42 42"
	 style="enable-background:new 0 0 42 42;" xml:space="preserve">
<style type="text/css">
	.st0{fill:url(#SVGID_1_);}
	.st1{fill:url(#SVGID_00000122685804863023847080000006636899312361640634_);}
	.st2{fill:url(#SVGID_00000075872996078664708860000004330549638458429841_);}
	.st3{fill:none;stroke:#50373B;stroke-width:1.3344;stroke-linecap:round;stroke-linejoin:round;stroke-miterlimit:10;}
</style>
<metadata>
	<sfw  xmlns="&ns_sfw;">
		<slices></slices>
		<sliceSourceBounds  bottomLeftOrigin="true" height="42.7" width="41.4" x="993.2" y="-945.9"></sliceSourceBounds>
	</sfw>
</metadata>
<g>
	<g>
		<linearGradient id="SVGID_1_" gradientUnits="userSpaceOnUse" x1="21" y1="6.9888" x2="21" y2="36.3456">
			<stop  offset="0" style="stop-color:#FFD270"/>
			<stop  offset="1" style="stop-color:#F79F63"/>
		</linearGradient>
		<path class="st0" d="M25.7,34.6v1.8h-9.3v-1.7c0-1-0.5-2-1.4-2.4c-4.2-2.2-7.2-6.6-7.2-11.6C7.5,13.5,13.2,7.4,20.3,7
			c7.7-0.4,14.1,5.7,14.1,13.3c0,5.2-2.9,9.7-7.2,11.9C26.2,32.7,25.7,33.6,25.7,34.6z"/>
		
			<linearGradient id="SVGID_00000145017169019188665420000009698803162398136978_" gradientUnits="userSpaceOnUse" x1="21" y1="36.3456" x2="21" y2="39.0144">
			<stop  offset="0" style="stop-color:#E4E9F4"/>
			<stop  offset="1" style="stop-color:#BCCBE2"/>
		</linearGradient>
		<path style="fill:url(#SVGID_00000145017169019188665420000009698803162398136978_);" d="M25.7,39h-9.3c-0.7,0-1.3-0.6-1.3-1.3
			l0,0c0-0.7,0.6-1.3,1.3-1.3h9.3c0.7,0,1.3,0.6,1.3,1.3l0,0C27,38.4,26.4,39,25.7,39z"/>
		
			<linearGradient id="SVGID_00000153683017152612871960000009726650359764691371_" gradientUnits="userSpaceOnUse" x1="21" y1="39.0144" x2="21" y2="41.6832">
			<stop  offset="0" style="stop-color:#E4E9F4"/>
			<stop  offset="1" style="stop-color:#BCCBE2"/>
		</linearGradient>
		<path style="fill:url(#SVGID_00000153683017152612871960000009726650359764691371_);" d="M24.3,41.7h-6.7c-0.7,0-1.3-0.6-1.3-1.3
			l0,0c0-0.7,0.6-1.3,1.3-1.3h6.7c0.7,0,1.3,0.6,1.3,1.3l0,0C25.7,41.1,25.1,41.7,24.3,41.7z"/>
	</g>
	<g>
		<line class="st3" x1="21" y1="0.3" x2="21" y2="4.3"/>
		<line class="st3" x1="9.7" y1="9" x2="6.3" y2="5.7"/>
		<line class="st3" x1="32.3" y1="9" x2="35.7" y2="5.7"/>
		<line class="st3" x1="9.7" y1="31.7" x2="6.3" y2="35"/>
		<line class="st3" x1="32.3" y1="31.7" x2="35.7" y2="35"/>
		<line class="st3" x1="5" y1="20.3" x2="1" y2="20.3"/>
		<line class="st3" x1="41" y1="20.3" x2="37" y2="20.3"/>
		<path class="st3" d="M34.3,19c0,0.4,0.1,0.9,0.1,1.3c0,5.2-2.9,9.7-7.2,11.9c-0.9,0.5-1.4,1.4-1.4,2.4v1.8h-9.3v-1.7
			c0-1-0.5-2-1.4-2.4c-4.2-2.2-7.2-6.6-7.3-11.6C7.5,13.5,13.2,7.4,20.3,7c5.4-0.3,10.1,2.6,12.5,6.9"/>
		<path class="st3" d="M25.7,39h-9.3c-0.7,0-1.3-0.6-1.3-1.3l0,0c0-0.7,0.6-1.3,1.3-1.3h9.3c0.7,0,1.3,0.6,1.3,1.3l0,0
			C27,38.4,26.4,39,25.7,39z"/>
		<path class="st3" d="M24.3,41.7h-6.7c-0.7,0-1.3-0.6-1.3-1.3l0,0c0-0.7,0.6-1.3,1.3-1.3h6.7c0.7,0,1.3,0.6,1.3,1.3l0,0
			C25.7,41.1,25.1,41.7,24.3,41.7z"/>
		<path class="st3" d="M19,36.3v-12c0-1.5-1.2-2.7-2.7-2.7l0,0c-1.5,0-2.7,1.2-2.7,2.7v0c0,1.5,1.2,2.7,2.7,2.7h9.3
			c1.5,0,2.7-1.2,2.7-2.7v0c0-1.5-1.2-2.7-2.7-2.7l0,0c-1.5,0-2.7,1.2-2.7,2.7v12"/>
		<line class="st3" x1="33.7" y1="16.3" x2="33.7" y2="16.3"/>
	</g>
</g>
</svg>
