<?xml version="1.0" encoding="utf-8"?>
<!-- Generator: Adobe Illustrator 26.2.1, SVG Export Plug-In . SVG Version: 6.00 Build 0)  -->
<!DOCTYPE svg PUBLIC "-//W3C//DTD SVG 1.1//EN" "http://www.w3.org/Graphics/SVG/1.1/DTD/svg11.dtd" [
	<!ENTITY ns_extend "http://ns.adobe.com/Extensibility/1.0/">
	<!ENTITY ns_ai "http://ns.adobe.com/AdobeIllustrator/10.0/">
	<!ENTITY ns_graphs "http://ns.adobe.com/Graphs/1.0/">
	<!ENTITY ns_vars "http://ns.adobe.com/Variables/1.0/">
	<!ENTITY ns_imrep "http://ns.adobe.com/ImageReplacement/1.0/">
	<!ENTITY ns_sfw "http://ns.adobe.com/SaveForWeb/1.0/">
	<!ENTITY ns_custom "http://ns.adobe.com/GenericCustomNamespace/1.0/">
	<!ENTITY ns_adobe_xpath "http://ns.adobe.com/XPath/1.0/">
]>
<svg version="1.1" id="Icons" xmlns:x="&ns_extend;" xmlns:i="&ns_ai;" xmlns:graph="&ns_graphs;"
	 xmlns="http://www.w3.org/2000/svg" xmlns:xlink="http://www.w3.org/1999/xlink" x="0px" y="0px" viewBox="0 0 42 42"
	 style="enable-background:new 0 0 42 42;" xml:space="preserve">
<style type="text/css">
	.st0{fill:#585875;}
	.st1{fill:url(#SVGID_1_);}
	.st2{fill:url(#SVGID_00000059290666957739293590000011449458733493321354_);}
	.st3{fill:#FFE8DA;}
	.st4{fill:url(#SVGID_00000163782860868582651990000001926268269567536039_);}
	.st5{fill:url(#SVGID_00000106121861944507255260000014676029229053057461_);}
	.st6{fill:#FFFCFC;}
	.st7{fill:url(#SVGID_00000168802892023947862250000009073806458450539911_);}
	.st8{fill:url(#SVGID_00000026134639025344170150000002390614864300734872_);}
	.st9{fill:none;stroke:#50373B;stroke-width:1.1138;stroke-linecap:round;stroke-linejoin:round;stroke-miterlimit:10;}
</style>
<metadata>
	<sfw  xmlns="&ns_sfw;">
		<slices></slices>
		<sliceSourceBounds  bottomLeftOrigin="true" height="35.6" width="35.6" x="3.2" y="5.6"></sliceSourceBounds>
	</sfw>
</metadata>
<g>
	<g>
		<g>
			<path class="st0" d="M21,9.1c-0.3,0-0.6-0.2-0.6-0.6V1.9c0-0.3,0.2-0.6,0.6-0.6s0.6,0.2,0.6,0.6v6.7C21.6,8.8,21.3,9.1,21,9.1z"
				/>
		</g>
		<g>
			<linearGradient id="SVGID_1_" gradientUnits="userSpaceOnUse" x1="23.7845" y1="1.2979" x2="23.7845" y2="4.6392">
				<stop  offset="0" style="stop-color:#FC6383"/>
				<stop  offset="1" style="stop-color:#DF3D63"/>
			</linearGradient>
			<path class="st1" d="M20.4,1.3h6.1c0.3,0,0.6,0.2,0.6,0.6v2.2c0,0.3-0.2,0.6-0.6,0.6h-6.1V1.3z"/>
		</g>
		
			<linearGradient id="SVGID_00000043452003892199626740000015405167804038214813_" gradientUnits="userSpaceOnUse" x1="21" y1="16.8909" x2="21" y2="34.7115">
			<stop  offset="0" style="stop-color:#F2756B"/>
			<stop  offset="1" style="stop-color:#C44747"/>
		</linearGradient>
		<path style="fill:url(#SVGID_00000043452003892199626740000015405167804038214813_);" d="M37.1,16.9v16.7c0,0.6-0.5,1.1-1.1,1.1H6
			c-0.6,0-1.1-0.5-1.1-1.1V16.9H37.1z"/>
		<rect x="7.1" y="23.6" class="st3" width="3.9" height="3.3"/>
		
			<linearGradient id="SVGID_00000164489978854942266380000004763409832976679077_" gradientUnits="userSpaceOnUse" x1="21" y1="12.4358" x2="21" y2="18.0047">
			<stop  offset="0" style="stop-color:#7F7F99"/>
			<stop  offset="1" style="stop-color:#515072"/>
		</linearGradient>
		<path style="fill:url(#SVGID_00000164489978854942266380000004763409832976679077_);" d="M3.7,18l1.9-4.9c0.2-0.4,0.6-0.7,1-0.7
			h28.6c0.5,0,0.9,0.3,1,0.7l1.9,4.9H3.7z"/>
		
			<linearGradient id="SVGID_00000129919773269524621270000016589056789361405072_" gradientUnits="userSpaceOnUse" x1="21" y1="10.2082" x2="21" y2="35.8253">
			<stop  offset="0" style="stop-color:#FBBCAA"/>
			<stop  offset="1" style="stop-color:#B96F6E"/>
		</linearGradient>
		<path style="fill:url(#SVGID_00000129919773269524621270000016589056789361405072_);" d="M14.3,35.8h13.4c0.6,0,1.1-0.5,1.1-1.1
			V19.1L21,10.2l-7.8,8.9v15.6C13.2,35.3,13.7,35.8,14.3,35.8z"/>
		<circle class="st6" cx="21" cy="20.2" r="3.3"/>
		<g>
			
				<linearGradient id="SVGID_00000064338929628494684910000002425074017126869681_" gradientUnits="userSpaceOnUse" x1="21.2784" y1="18.84" x2="21.2784" y2="21.6245">
				<stop  offset="0" style="stop-color:#7F7F99"/>
				<stop  offset="1" style="stop-color:#515072"/>
			</linearGradient>
			<path style="fill:url(#SVGID_00000064338929628494684910000002425074017126869681_);" d="M21.6,21.6c-0.1,0-0.1,0-0.2-0.1
				L20.8,21c-0.1-0.1-0.1-0.1-0.1-0.2v-1.7c0-0.2,0.1-0.3,0.3-0.3s0.3,0.1,0.3,0.3v1.6l0.5,0.5c0.1,0.1,0.1,0.3,0,0.4
				C21.7,21.6,21.6,21.6,21.6,21.6z"/>
		</g>
		<path class="st0" d="M18.2,35.8v-5.6c0-1.2,1-2.2,2.2-2.2h1.1c1.2,0,2.2,1,2.2,2.2v5.6H18.2z"/>
		<rect x="31" y="23.6" class="st3" width="3.9" height="3.3"/>
		<g>
			
				<linearGradient id="SVGID_00000096033083708377197850000000623917996233581716_" gradientUnits="userSpaceOnUse" x1="21" y1="7.9806" x2="21" y2="20.2323">
				<stop  offset="0" style="stop-color:#585874"/>
				<stop  offset="1" style="stop-color:#515072"/>
			</linearGradient>
			<polygon style="fill:url(#SVGID_00000096033083708377197850000000623917996233581716_);" points="31.6,20.2 21,8 10.4,20.2 
				13.2,20.2 21,11.3 28.8,20.2 			"/>
		</g>
	</g>
	<g>
		<line class="st9" x1="21" y1="1.3" x2="21" y2="8"/>
		<polyline class="st9" points="21,1.3 27.1,1.3 27.1,4.6 21,4.6 		"/>
		<polygon class="st9" points="31.6,20.2 21,8 10.4,20.2 13.2,20.2 21,11.3 28.8,20.2 		"/>
		<polyline class="st9" points="24.9,12.4 36,12.4 38.3,18 32.1,18 		"/>
		<polyline class="st9" points="9.9,18 3.7,18 6,12.4 17.1,12.4 		"/>
		<line class="st9" x1="28.8" y1="28" x2="28.8" y2="20.2"/>
		<polyline class="st9" points="28.8,32.5 28.8,35.8 13.2,35.8 13.2,20.2 		"/>
		<polyline class="st9" points="4.9,18 4.9,34.7 13.2,34.7 		"/>
		<polyline class="st9" points="28.8,34.7 37.1,34.7 37.1,18 		"/>
		<circle class="st9" cx="21" cy="20.2" r="3.3"/>
		<polyline class="st9" points="21,19.1 21,20.8 21.6,21.3 		"/>
		<path class="st9" d="M18.2,35.8v-5.6c0-1.2,1-2.2,2.2-2.2h1.1c1.2,0,2.2,1,2.2,2.2v5.6"/>
		<rect x="7.1" y="23.6" class="st9" width="3.9" height="3.3"/>
		<rect x="31" y="23.6" class="st9" width="3.9" height="3.3"/>
		<line class="st9" x1="28.8" y1="30.3" x2="28.8" y2="30.3"/>
	</g>
</g>
</svg>
