<?xml version="1.0" encoding="utf-8"?>
<!-- Generator: Adobe Illustrator 16.0.0, SVG Export Plug-In . SVG Version: 6.00 Build 0)  -->
<!DOCTYPE svg PUBLIC "-//W3C//DTD SVG 1.1//EN" "http://www.w3.org/Graphics/SVG/1.1/DTD/svg11.dtd">
<svg version="1.1" id="Layer_1" xmlns="http://www.w3.org/2000/svg" xmlns:xlink="http://www.w3.org/1999/xlink" x="0px" y="0px"
	 width="74.52px" height="77.762px" viewBox="0 0 74.52 77.762" enable-background="new 0 0 74.52 77.762" xml:space="preserve">
<g>
	<g>
		<polygon fill="#FF6E6E" points="39.994,42.605 39.994,51.585 50.348,42.605 		"/>
		<rect x="19.502" y="10.811" fill="#FF6E6E" width="32.525" height="29.795"/>
		<path fill="#FF6E6E" d="M71.211,52.775L57.887,38.563c-0.36-0.385-0.36-0.982,0-1.367l13.324-14.213H54.028v18.623
			c0,0.012-0.007,0.021-0.007,0.033c-0.003,0.072-0.024,0.141-0.043,0.21c-0.015,0.058-0.021,0.116-0.045,0.17
			c-0.023,0.052-0.063,0.094-0.096,0.142c-0.042,0.061-0.079,0.123-0.133,0.172c-0.009,0.009-0.013,0.02-0.021,0.028L41.672,52.775
			H71.211z"/>
		<path fill="#313A4C" d="M17.378,4.219l2,38.387h18.615v11.17c0,0.049,0.021,0.092,0.028,0.139c0.01,0.072,0.017,0.141,0.041,0.209
			c0.025,0.066,0.065,0.123,0.104,0.182c0.026,0.041,0.038,0.088,0.071,0.127c0.008,0.008,0.02,0.012,0.027,0.02
			c0.072,0.078,0.16,0.137,0.253,0.188c0.027,0.016,0.049,0.041,0.077,0.053c0.122,0.053,0.256,0.084,0.398,0.084H73.52
			c0.398,0,0.759-0.236,0.918-0.602c0.158-0.367,0.084-0.791-0.188-1.082L59.988,37.879L74.25,22.666
			c0.272-0.291,0.347-0.715,0.188-1.081c-0.159-0.366-0.52-0.603-0.918-0.603H54.028V9.811c0-0.551-0.447-1-1-1H19.378V4.219
			C21.191,3.768,15.565,3.768,17.378,4.219z M53.683,42.36c0.009-0.009,0.013-0.02,0.021-0.028c0.054-0.049,0.091-0.111,0.133-0.172
			c0.032-0.048,0.072-0.09,0.096-0.142c0.023-0.054,0.03-0.112,0.045-0.17c0.019-0.069,0.04-0.138,0.043-0.21
			c0-0.012,0.007-0.021,0.007-0.033V22.982h17.184L57.887,37.195c-0.36,0.385-0.36,0.982,0,1.367l13.324,14.213H41.672L53.683,42.36
			z M39.994,51.585v-8.979h10.354L39.994,51.585z M19.502,10.811h32.525v29.795H19.502V10.811z"/>
		<rect x="19.502" y="10.811" fill="#FFA9A9" width="32.525" height="2.75"/>
		<path fill="#FFA9A9" d="M57.667,39.816c-0.027,0.096-0.049,0.193-0.047,0.292c-0.002,0.092,0.02,0.181,0.043,0.271
			c-0.084,0.322-0.019,0.676,0.224,0.934l10.746,11.463h2.578L58.027,38.713l-0.14,0.148C57.639,39.126,57.575,39.489,57.667,39.816
			z"/>
		<path fill="#FF4D4D" d="M53.705,45.082c0.054-0.049,0.091-0.111,0.133-0.172c0.032-0.048,0.072-0.09,0.096-0.142
			c0.023-0.054,0.03-0.112,0.045-0.17c0.019-0.069,0.04-0.138,0.043-0.21c0-0.012,0.007-0.021,0.007-0.033v-0.5v-0.043v-0.541
			v-1.666c0,0.012-0.007,0.021-0.007,0.033c-0.003,0.072-0.024,0.141-0.043,0.21c-0.015,0.058-0.021,0.116-0.045,0.17
			c-0.023,0.052-0.063,0.094-0.096,0.142c-0.042,0.061-0.079,0.123-0.133,0.172c-0.009,0.009-0.013,0.02-0.021,0.028L41.672,52.775
			h3.172l8.839-7.665C53.692,45.102,53.696,45.091,53.705,45.082z"/>
		<polygon fill="#FFA9A9" points="54.028,25.732 68.633,25.732 71.211,22.982 54.028,22.982 		"/>
		<path fill="#FF4D4D" d="M16.719,1.563"/>
		<polygon fill="#FF4D4D" points="39.994,42.605 39.994,45.355 47.177,45.355 50.348,42.605 		"/>
	</g>
	<g>
		<polygon fill="#FF6E6E" points="20.419,71.188 16.792,71.188 5.217,71.188 2.693,75.762 34.518,75.762 31.993,71.188 		"/>
		<circle fill="#C5C9FF" cx="18.605" cy="4.829" r="2.829"/>
		<path fill="#FF6E6E" d="M17.792,9.574V28.54v15.422v25.226h1.627v-9.805V43.962V28.26V12.838V9.574
			c-0.266,0.046-0.535,0.083-0.813,0.083C18.327,9.657,18.058,9.62,17.792,9.574z"/>
		<path fill="#313A4C" d="M15.792,44.962v24.226H4.626c-0.364,0-0.699,0.199-0.876,0.518l-3.626,6.574
			c-0.171,0.309-0.165,0.687,0.015,0.991S0.646,77.762,1,77.762h35.211c0.354,0,0.682-0.187,0.861-0.491s0.186-0.683,0.015-0.991
			l-3.627-6.574c-0.177-0.318-0.512-0.518-0.876-0.518H21.419v-8.805V42.962V29.26V11.838V8.735
			c1.215-0.878,2.015-2.297,2.015-3.907C23.434,2.166,21.268,0,18.605,0c-2.663,0-4.829,2.166-4.829,4.828
			c0,1.61,0.8,3.03,2.016,3.908V27.54 M15.776,4.828c0-1.56,1.27-2.828,2.829-2.828s2.828,1.269,2.828,2.828
			s-1.269,2.829-2.828,2.829S15.776,6.388,15.776,4.828z M19.419,9.574v3.264V28.26v15.702v15.421v9.805h-1.627V43.962V28.54V9.574
			c0.266,0.046,0.535,0.083,0.813,0.083C18.884,9.657,19.153,9.62,19.419,9.574z M2.693,75.762l2.523-4.574h11.575h3.627h11.574
			l2.524,4.574H2.693z"/>
		<path fill="#DDE6ED" d="M18.605,4.75c1.057,0,1.975,0.586,2.459,1.447c0.228-0.407,0.369-0.87,0.369-1.369
			c0-1.56-1.269-2.828-2.828-2.828s-2.829,1.269-2.829,2.828c0,0.499,0.141,0.962,0.369,1.369C16.63,5.336,17.548,4.75,18.605,4.75z
			"/>
		<polygon fill="#FF4D4D" points="2.693,75.762 4.21,75.762 5.217,73.938 16.792,73.938 20.419,73.938 31.993,73.938 33,75.762 
			34.518,75.762 31.993,71.188 20.419,71.188 16.792,71.188 5.217,71.188 		"/>
	</g>
</g>
</svg>
