<?xml version="1.0" encoding="utf-8"?>
<!-- Generator: Adobe Illustrator 23.1.1, SVG Export Plug-In . SVG Version: 6.00 Build 0)  -->
<svg version="1.1" id="圖層_1" xmlns="http://www.w3.org/2000/svg" xmlns:xlink="http://www.w3.org/1999/xlink" x="0px" y="0px"
	 viewBox="0 0 200 200" style="enable-background:new 0 0 200 200;" xml:space="preserve">
<style type="text/css">
	.st0{fill:#3CA07F;}
	.st1{fill:#8BE8C6;}
	.st2{fill:#404040;}
</style>
<g id="_x34_">
	<g>
		<rect x="55.2" y="71.2" class="st0" width="85.2" height="41.5"/>
		<circle class="st1" cx="99.9" cy="92.6" r="22.9"/>
		<g>
			<path class="st2" d="M55.2,68.1V117h89.6V68.1H55.2z M140.4,81.4c-4.9-0.1-8.9-4-9-8.9h9V81.4z M100.9,72.5
				c10.6,0.5,19.1,9.3,19.1,20c0,11-9,20-20,20s-20-9-20-20c0-10.7,8.5-19.4,19.1-19.9L100.9,72.5L100.9,72.5z M76.8,92.5
				c0,8.7,4.8,16.2,11.9,20.2H71.9c-0.2-6.7-5.6-12.1-12.3-12.2V84.7c6.7-0.1,12.1-5.5,12.3-12.2h16.2C81.3,76.6,76.8,84,76.8,92.5z
				 M123.2,92.5c0-8.5-4.6-15.9-11.3-19.9h16.2c0.2,6.7,5.6,12.1,12.3,12.2v15.8c-6.7,0.1-12.1,5.5-12.3,12.2h-16.7
				C118.5,108.7,123.2,101.1,123.2,92.5z M68.6,72.5c-0.2,4.9-4.1,8.8-9,8.9v-8.9H68.6z M59.6,103.8c4.9,0.1,8.9,4,9,8.9h-9V103.8z
				 M131.4,112.7c0.2-4.9,4.1-8.8,9-8.9v8.9H131.4z"/>
			<rect x="55.2" y="120.1" class="st2" width="89.4" height="4.4"/>
			<rect x="55.2" y="127.5" class="st2" width="89.4" height="4.4"/>
			<path class="st2" d="M131.2,95.7c1.7,0,3.1-1.4,3.1-3.1s-1.4-3.1-3.1-3.1s-3.1,1.4-3.1,3.1S129.5,95.7,131.2,95.7z"/>
			<path class="st2" d="M68.8,89.5c-1.7,0-3.1,1.4-3.1,3.1s1.4,3.1,3.1,3.1c1.7,0,3.1-1.4,3.1-3.1C71.9,90.9,70.5,89.5,68.8,89.5z"
				/>
			<path class="st2" d="M102.2,76.2h-4.4v2.6c-5.5,0.8-8.1,4.5-8.1,8s3,7,8.1,7.8v7.2c-2.5-0.6-3.5-2.3-3.7-3.3l-4.3,0.9
				c0.6,2.9,3.4,6.1,8,6.8v2.8h4.4v-2.6c5.5-0.8,8.1-4.5,8.1-8s-3-7-8.1-7.8v-7.2c2.5,0.6,3.5,2.3,3.7,3.3l4.3-0.9
				c-0.6-2.9-3.4-6.1-8-6.8V76.2z M94.1,86.8c0-1.4,1-3,3.7-3.5v6.9C95.4,89.6,94.1,88,94.1,86.8z M105.9,98.4c0,1.4-1,3-3.7,3.5V95
				C104.6,95.7,105.9,97.2,105.9,98.4z"/>
		</g>
	</g>
</g>
<g id="_x33_">
</g>
</svg>
