<?xml version="1.0" encoding="utf-8"?>
<!-- Generator: Adobe Illustrator 23.1.1, SVG Export Plug-In . SVG Version: 6.00 Build 0)  -->
<svg version="1.1" id="圖層_1" xmlns="http://www.w3.org/2000/svg" xmlns:xlink="http://www.w3.org/1999/xlink" x="0px" y="0px"
	 viewBox="0 0 200 200" style="enable-background:new 0 0 200 200;" xml:space="preserve">
<style type="text/css">
	.st0{fill:#FFF564;}
	.st1{fill:#FFFFFF;}
	.st2{fill:#404040;}
</style>
<g id="_x34_">
	<g>
		<g>
			<rect x="94.1" y="64.5" class="st0" width="9.4" height="7.6"/>
		</g>
		<g>
			<polygon class="st0" points="135.6,76.8 129.8,71 121.8,79.1 127.6,84.9 			"/>
		</g>
		<g>
			<rect x="88.1" y="55" class="st0" width="22.2" height="9.5"/>
		</g>
		<g>
			<ellipse class="st0" cx="99.6" cy="108.5" rx="36" ry="36.4"/>
		</g>
		<g>
			<ellipse class="st1" cx="99.6" cy="108.5" rx="28.2" ry="28.6"/>
		</g>
		<g>
			<path class="st2" d="M101.8,106.8v-8c2.8,0.7,3.9,2.5,4.2,3.6l4.4-1c-0.7-3.2-3.6-6.5-8.6-7.3v-2.9h-4.5v2.9
				c-5.9,0.8-8.6,4.8-8.6,8.5c0,3.7,3.2,7.5,8.6,8.3v8c-2.8-0.7-3.9-2.5-4.2-3.6l-4.4,1c0.7,3.2,3.6,6.5,8.6,7.3v2.9h4.5v-2.9
				c5.9-0.8,8.6-4.8,8.6-8.5C110.4,111.5,107.2,107.7,101.8,106.8z M93.2,102.7c0-1.6,1.1-3.3,4.1-3.9v7.6
				C94.8,105.8,93.2,104.2,93.2,102.7z M101.8,119.1v-7.6c2.5,0.6,4.1,2.2,4.1,3.7S104.8,118.5,101.8,119.1z"/>
		</g>
		<g>
			<path class="st2" d="M99.6,139.1c-16.7,0-30.2-13.7-30.2-30.6S82.9,78,99.6,78s30.2,13.7,30.2,30.6S116.2,139.1,99.6,139.1z
				 M99.6,82c-14.4,0-26.2,11.9-26.2,26.6c0,14.6,11.7,26.6,26.2,26.6s26.2-11.9,26.2-26.6S114,82,99.6,82z"/>
		</g>
		<g>
			<path class="st2" d="M99.6,147c-20.9,0-38-17.2-38-38.4s17-38.4,38-38.4s38,17.2,38,38.4C137.5,129.7,120.5,147,99.6,147z
				 M99.6,74.1c-18.7,0-33.9,15.4-33.9,34.4s15.2,34.4,33.9,34.4s33.9-15.4,33.9-34.4C133.5,89.6,118.3,74.1,99.6,74.1z"/>
		</g>
		<g>
			<path class="st2" d="M105.6,74.1H92.1V62.5h13.4L105.6,74.1L105.6,74.1z M96.2,70.1h5.4v-3.6h-5.4V70.1z"/>
		</g>
		<g>
			<path class="st2" d="M127.6,87.8l-8.6-8.7l10.8-11l8.6,8.7L127.6,87.8z M124.6,79.1l3,3l5.2-5.2l-3-3L124.6,79.1z"/>
		</g>
		<g>
			<path class="st2" d="M112.3,66.5H86.1V53h26.2V66.5z M90.1,62.5h18.1V57H90.1V62.5z"/>
		</g>
	</g>
</g>
<g id="_x33_">
</g>
</svg>
