<?xml version="1.0" encoding="utf-8"?>
<!-- Generator: Adobe Illustrator 23.1.1, SVG Export Plug-In . SVG Version: 6.00 Build 0)  -->
<svg version="1.1" id="圖層_1" xmlns="http://www.w3.org/2000/svg" xmlns:xlink="http://www.w3.org/1999/xlink" x="0px" y="0px"
	 viewBox="0 0 200 200" style="enable-background:new 0 0 200 200;" xml:space="preserve">
<style type="text/css">
	.st0{fill:#FFF564;}
	.st1{fill:#8BE8C6;}
	.st2{fill:#404040;}
</style>
<g id="_x34_">
	<g>
		<polygon class="st0" points="92.5,131 113.4,152.3 136.4,131 126.9,129.7 126.3,84.2 100,84.2 100,131 		"/>
		<polygon class="st1" points="86.6,47.9 65.4,68.2 73.6,69.7 74.2,112.7 86.6,114.9 100,114.9 100,71.2 108.3,69.7 		"/>
		<g>
			<polygon class="st2" points="129.3,127.7 129.3,81.8 111.5,81.8 111.5,87 124.1,87 124.1,132.8 130,132.8 113.4,148.5 
				96.7,132.8 102.6,132.8 102.6,121.6 97.5,121.6 97.5,127.7 83.8,127.7 113.4,155.5 143,127.7 			"/>
			<polygon class="st2" points="88.5,118.2 88.5,113 75.9,113 75.9,67.2 70,67.2 86.6,51.5 103.3,67.2 97.4,67.2 97.4,78.4 
				102.5,78.4 102.5,72.3 116.2,72.3 86.6,44.5 57,72.3 70.7,72.3 70.7,118.2 			"/>
			<path class="st2" d="M102.6,118.2v-3.6c5.8-0.9,8.4-4.9,8.4-8.6s-3.1-7.5-8.4-8.4v-7c2.1,0.7,3.2,2.1,3.4,3.1l5-1.1
				c-0.7-3.1-3.5-6.4-8.4-7.3v-3.6h-5.1v3.6c-5.8,1-8.5,4.9-8.5,8.7c0,4.1,3.5,7.5,8.4,8.4v7c-2.1-0.7-3.2-2.1-3.4-3.1l-5,1.1
				c0.7,3.1,3.5,6.4,8.4,7.3v3.6h5.2V118.2z M105.9,106c0,1.4-0.9,2.8-3.3,3.4v-6.5C104.7,103.6,105.9,105,105.9,106z M94.1,94
				c0-1.4,0.9-2.8,3.3-3.4v6.5C95.3,96.4,94.1,95,94.1,94z"/>
		</g>
	</g>
</g>
<g id="_x33_">
</g>
</svg>
