<?xml version="1.0" encoding="utf-8"?>
<!-- Generator: Adobe Illustrator 23.1.1, SVG Export Plug-In . SVG Version: 6.00 Build 0)  -->
<svg version="1.1" id="圖層_1" xmlns="http://www.w3.org/2000/svg" xmlns:xlink="http://www.w3.org/1999/xlink" x="0px" y="0px"
	 viewBox="0 0 200 200" style="enable-background:new 0 0 200 200;" xml:space="preserve">
<style type="text/css">
	.st0{fill:#FFF564;}
	.st1{fill:#8BE8C6;}
	.st2{fill:#404040;}
</style>
<g id="_x34_">
	<g>
		<rect x="92.3" y="62.2" class="st0" width="14.6" height="6.7"/>
		<rect x="83.6" y="73.8" class="st1" width="32.1" height="6"/>
		<path class="st0" d="M65.2,149.1v-9.4c0-4.4-3.6-8-8-8s-8,3.6-8,8v9.4h-6.1v-42.5h28.1v42.5H65.2z"/>
		<path class="st0" d="M123.6,149.1h-13.2v-15c0-5.8-4.7-10.6-10.6-10.6c-5.8,0-10.6,4.7-10.6,10.6v15H76.1v-47.4v-17h47.5V149.1z"
			/>
		<path class="st0" d="M128.8,106.5h28.1v42.5h-6.1v-9.4c0-4.4-3.6-8-8-8c-4.4,0-8,3.6-8,8v9.4h-6.1v-42.5H128.8z"/>
		<path class="st2" d="M128.5,79.8h-7.9V68.8h-8.8V57.3h-10.5V46.1h-4.9v11.2h-9v11.5h-8.8v10.9h-7.4v21.9h-33v52.2h15.9v-14.3
			c0-1.7,1.4-3.1,3.1-3.1s3.1,1.4,3.1,3.1v14.3h10.9h4.9h18.1v-19.8c0-3.1,2.5-5.7,5.7-5.7c3.1,0,5.7,2.5,5.7,5.7v19.8h18.3h4.7
			h11.2v-14.3c0-1.7,1.4-3.1,3.1-3.1s3.1,1.4,3.1,3.1v14.3h15.9v-52.2h-33.4V79.8z M92.3,62.2h14.6v6.6H92.3V62.2z M83.6,73.8h32.1
			v6H83.6V73.8z M65.2,149.1v-9.4c0-4.4-3.6-8-8-8s-8,3.6-8,8v9.4h-6.1v-42.5h28.1v42.5H65.2z M123.6,149.1h-13.2v-15
			c0-5.8-4.7-10.6-10.6-10.6c-5.8,0-10.6,4.7-10.6,10.6v15H76.1v-47.4v-17h47.5V149.1z M128.8,106.5h28.1v42.5h-6.1v-9.4
			c0-4.4-3.6-8-8-8c-4.4,0-8,3.6-8,8v9.4h-6.1v-42.5H128.8z"/>
		<path class="st2" d="M89.2,110.2c0-1.9-1.5-3.4-3.4-3.4s-3.4,1.5-3.4,3.4v6.3h6.7v-6.3H89.2z"/>
		<path class="st2" d="M103,110.2c0-1.9-1.5-3.4-3.4-3.4c-1.9,0-3.4,1.5-3.4,3.4v6.3h6.8V110.2z"/>
		<path class="st2" d="M117.2,110.2c0-1.9-1.5-3.4-3.4-3.4c-1.9,0-3.4,1.5-3.4,3.4v6.3h6.7v-6.3H117.2z"/>
		<path class="st2" d="M51.7,114.7c-1.9,0-3.4,1.5-3.4,3.4v6.3H55v-6.3C55.1,116.2,53.6,114.7,51.7,114.7z"/>
		<path class="st2" d="M62.7,114.7c-1.9,0-3.4,1.5-3.4,3.4v6.3H66v-6.3C66,116.2,64.5,114.7,62.7,114.7z"/>
		<path class="st2" d="M151.7,118.1c0-1.9-1.5-3.4-3.4-3.4c-1.9,0-3.4,1.5-3.4,3.4v6.3h6.7v-6.3H151.7z"/>
		<path class="st2" d="M140.7,118.1c0-1.9-1.5-3.4-3.4-3.4c-1.9,0-3.4,1.5-3.4,3.4v6.3h6.7v-6.3H140.7z"/>
		<path class="st2" d="M89.2,95.5c0-1.9-1.5-3.4-3.4-3.4s-3.4,1.5-3.4,3.4v6.3h6.7v-6.3H89.2z"/>
		<path class="st2" d="M103,95.5c0-1.9-1.5-3.4-3.4-3.4c-1.9,0-3.4,1.5-3.4,3.4v6.3h6.8V95.5z"/>
		<path class="st2" d="M117.2,95.5c0-1.9-1.5-3.4-3.4-3.4c-1.9,0-3.4,1.5-3.4,3.4v6.3h6.7v-6.3H117.2z"/>
	</g>
</g>
<g id="_x33_">
</g>
</svg>
