<?xml version="1.0" encoding="utf-8"?>
<!-- Generator: Adobe Illustrator 23.1.1, SVG Export Plug-In . SVG Version: 6.00 Build 0)  -->
<svg version="1.1" id="_x34_" xmlns="http://www.w3.org/2000/svg" xmlns:xlink="http://www.w3.org/1999/xlink" x="0px" y="0px"
	 viewBox="0 0 70 65" style="enable-background:new 0 0 70 65;" xml:space="preserve">
<style type="text/css">
	.st0{fill:url(#SVGID_1_);}
	.st1{fill:url(#SVGID_2_);}
	.st2{fill:#FFFFFF;}
</style>
<g>
	<g>
		
			<linearGradient id="SVGID_1_" gradientUnits="userSpaceOnUse" x1="1047.839" y1="164.7941" x2="1047.839" y2="79.8811" gradientTransform="matrix(-0.7071 -0.7071 -0.7071 0.7071 864.8727 681.9534)">
			<stop  offset="0.2519" style="stop-color:#FFE600"/>
			<stop  offset="0.8259" style="stop-color:#FF4000"/>
		</linearGradient>
		<path class="st0" d="M51.6,34c0.2-2.2,0.4-4.3,0.6-6.5c0.5-3.8,1.3-7.5,2.4-11.1c0,0,0-0.1,0-0.1C57,8.9,62.1,3.1,69.5,0.2
			C69.6,0.2,69.8,0,70,0C44-0.2,47.2,16.7,34,20.9c7.2-6.3,9.1-12.8,7.3-19.2c-5.7,14.5-21.9,8.1-33.9,20c-9.9,9.9-9.9,25.9,0,35.8
			c9.9,9.9,25.9,9.9,35.8,0c5.1-5.1,7.1-12.2,7.9-19.2C51.3,36.9,51.4,35.5,51.6,34z"/>
		
			<radialGradient id="SVGID_2_" cx="1044.1326" cy="148.7212" r="49.9629" gradientTransform="matrix(-0.7071 -0.7071 -0.7071 0.7071 864.8727 681.9534)" gradientUnits="userSpaceOnUse">
			<stop  offset="0.2745" style="stop-color:#FF3300"/>
			<stop  offset="0.7481" style="stop-color:#FFE600"/>
		</radialGradient>
		<path class="st1" d="M8.4,56.6c9.3,9.3,24.5,9.3,33.8,0c4-4,6.5-10,7.5-18.3c0.2-1.5,0.3-2.9,0.4-4.3l0.1-1
			c0.2-1.8,0.3-3.7,0.6-5.5c0.5-4,1.3-7.9,2.5-11.4l0-0.1c1.9-6,5.4-10.8,10.2-14.1C53.2,3.1,49.3,8.2,45.6,13
			c-2.8,3.7-6.7,9.5-15,9.5c0,0,10.9-9.3,10-16.4c-3.7,5.3-9.4,6.8-15.3,8.4c-5.8,1.5-11.7,3.1-16.9,8.2
			C-0.9,32.1-0.9,47.2,8.4,56.6z"/>
	</g>
	<g>
		<g>
			<path class="st2" d="M29.7,29.3c-2.6,2.3-9.2,13.9-10.6,16.5c-0.2,0.4-0.5,0.6-0.8,0.6c-0.5,0-1.1-0.4-1.7-0.6
				c-0.5-0.2-1-0.6-1-1.2c0-0.2,0.1-0.4,0.1-0.6c0.4-0.8,1.5-2.7,2.9-5L13,39.6c-1.7,2.7-3.1,5-3.8,6.2c-0.3,0.5-0.7,0.7-1.1,0.7
				c-0.9,0-2.4-0.7-2.4-1.8c0-0.2,0-0.3,0.1-0.5c0.3-0.6,1.3-2.1,2.6-4.1c-0.4,0.1-0.7,0.1-1.1,0.1c-0.9,0-1.7-1.1-1.7-1.9
				c0-0.3,0.1-0.5,0.4-0.6c0.4-0.1,2.1-0.3,4.2-0.5c2.8-4.4,5.9-9.2,6.2-9.4c0.2-0.2,0.4-0.4,0.7-0.4c0.7,0,2.6,0.8,2.6,1.6
				c0,0.2-0.1,0.4-0.2,0.6c-1.5,2.1-3.2,4.7-4.8,7.1c2.1-0.2,4.1-0.3,5.4-0.4c2.7-4.2,5.6-8.7,5.8-9c0.4-0.6,0.7-0.9,1.3-0.9
				c1,0,2.8,0.7,2.8,1.8C30.1,28.8,29.9,29.1,29.7,29.3z"/>
			<path class="st2" d="M34.6,37.6c-0.1,3.1-4.5,9-7.2,9c-1,0-1.9-0.7-2.4-1.3c-0.4-0.4-1.5-1.2-1.5-2.6c0-3.8,4.8-8.3,6.6-9
				c0.2-0.1,0.5-0.1,0.7-0.1c0.9,0,1.6,0.7,1.9,1c0.8,0.7,2,0.8,2,2.9C34.6,37.4,34.6,37.5,34.6,37.6z M32.5,36.4
				c-1.8,0-6.4,5.3-6.4,7.5c0,0.6,0.3,0.9,1.1,0.9c1.3,0,5.9-6,5.9-7.9C33,36.6,32.8,36.4,32.5,36.4z"/>
			<path class="st2" d="M45.9,35.1C45.8,35.1,45.8,35.1,45.9,35.1c-0.6-0.1-1.3-0.2-2-0.2c-0.8,0-1.6,0.1-2.4,0.1
				c-2.5,3.3-5.3,7.6-5.3,9.4c0,0.5,0.2,0.8,0.8,0.8c1.3,0,4-2.7,5-3.7c0.2-0.2,0.4-0.3,0.5-0.3c0.1,0,0.2,0.1,0.2,0.4
				c0,0.5-0.3,1.2-0.6,1.6c-1,1.2-3.3,3.5-5,3.5c-0.7,0-1.4-0.3-2.3-1.1c-0.7-0.7-1-1.4-1-2c0-0.4,0.1-0.8,0.2-1.2
				c0.6-1.8,2.1-4.4,3.7-6.9c-0.2,0-0.4,0-0.6,0c-0.1,0-0.1,0-0.1,0c-0.7,0-1.4-0.9-1.4-1.5c0-0.2,0.1-0.4,0.4-0.4
				c0.9,0,1.9,0.1,2.8,0.1c0,0,0.1,0,0.1,0c1.6-2.5,3.2-4.6,3.6-5.3c0.1-0.2,0.3-0.3,0.5-0.3c0.6,0,2.5,1.2,2.5,1.9
				c0,0.2-0.1,0.5-0.4,0.7c-0.4,0.3-1.3,1.4-2.4,2.9c1.6,0,2.8-0.1,3-0.1c0.5,0,0.7,0.6,0.7,1C46.2,34.9,46.1,35.1,45.9,35.1z"/>
		</g>
	</g>
</g>
</svg>
